<svg width="424" height="399" viewBox="0 0 424 399" fill="none" xmlns="http://www.w3.org/2000/svg">
<path d="M230.792 229.414C226.065 234.309 219.44 236.757 210.916 236.757C202.392 236.757 195.725 234.309 190.914 229.414C186.103 224.435 183.698 217.472 183.698 208.526C183.698 199.495 186.103 192.533 190.914 187.638C195.725 182.743 202.392 180.295 210.916 180.295C219.44 180.295 226.065 182.743 230.792 187.638C235.518 192.533 237.881 199.495 237.881 208.526C237.881 217.472 235.518 224.435 230.792 229.414Z" fill="#FAEDDD"/>
<path d="M350.4 229.414C345.673 234.309 339.048 236.757 330.524 236.757C322 236.757 315.333 234.309 310.522 229.414C305.711 224.435 303.306 217.472 303.306 208.526C303.306 199.495 305.711 192.533 310.522 187.638C315.333 182.743 322 180.295 330.524 180.295C339.048 180.295 345.673 182.743 350.4 187.638C355.126 192.533 357.489 199.495 357.489 208.526C357.489 217.472 355.126 224.435 350.4 229.414Z" fill="#FAEDDD"/>
<path fill-rule="evenodd" clip-rule="evenodd" d="M423.374 398.712L6.68317 289.155L0.00292969 149.764L404.279 0.443359L423.374 398.712ZM140.462 255.999V161.053H121.219L85.7726 168.395V188.65L114.51 183.579V255.999H140.462ZM182.685 251.948C190.703 255.999 200.113 258.025 210.916 258.025C221.635 258.025 230.96 255.999 238.894 251.948C246.911 247.813 253.115 242.032 257.503 234.605C261.892 227.178 264.086 218.485 264.086 208.526C264.086 198.567 261.892 189.874 257.503 182.447C253.115 175.02 246.911 169.281 238.894 165.23C230.96 161.095 221.635 159.027 210.916 159.027C200.113 159.027 190.703 161.095 182.685 165.23C174.668 169.281 168.464 175.02 164.076 182.447C159.772 189.874 157.619 198.567 157.619 208.526C157.619 218.485 159.772 227.178 164.076 234.605C168.464 242.032 174.668 247.813 182.685 251.948ZM302.293 251.948C310.311 255.999 319.721 258.025 330.524 258.025C341.243 258.025 350.568 255.999 358.502 251.948C366.519 247.813 372.723 242.032 377.111 234.605C381.5 227.178 383.694 218.485 383.694 208.526C383.694 198.567 381.5 189.874 377.111 182.447C372.723 175.02 366.519 169.281 358.502 165.23C350.568 161.095 341.243 159.027 330.524 159.027C319.721 159.027 310.311 161.095 302.293 165.23C294.276 169.281 288.072 175.02 283.684 182.447C279.38 189.874 277.227 198.567 277.227 208.526C277.227 218.485 279.38 227.178 283.684 234.605C288.072 242.032 294.276 247.813 302.293 251.948Z" fill="#FAEDDD"/>
</svg>
