<svg width="147" height="46" viewBox="0 0 147 46" fill="none" xmlns="http://www.w3.org/2000/svg">
<path d="M0 10.9774C0.150385 10.9826 0.300772 10.8308 0.36961 11.0668C0.512581 11.8124 0.00847484 12.4113 0.151446 13.1569L0.393966 13.2109C0.288061 13.788 0.154623 14.388 0.0413044 15.0025C0.076606 16.1318 0.134499 17.2562 0.214987 18.3757C0.303947 18.3466 0.385495 18.3331 0.418325 18.4443C0.482927 18.9102 0.398204 19.5549 0.372787 20.2235C0.386555 20.3212 0.40138 20.42 0.414088 20.5177C0.46159 20.5752 0.529893 20.6125 0.604719 20.6217C0.596246 20.9243 0.572946 21.1926 0.547529 21.4421C1.02516 24.7217 1.58752 28.0523 2.14352 31.6625C2.36697 32.4258 2.59043 33.19 2.69316 33.9252C2.78636 35.0149 2.6275 36.4062 2.59996 37.4689C3.45779 37.3056 3.87824 39.8958 4.7456 39.379C4.72759 40.0872 4.699 41.1467 4.94152 41.205C5.66908 41.3703 6.50891 41.9152 6.94736 43.7962C7.05326 44.5324 6.74402 45.6679 6.89123 45.9226C7.12422 46.3313 7.40381 44.9681 7.63786 45.3767C7.9005 39.9052 7.58491 34.6364 7.59232 29.1275C7.21212 27.2558 7.04479 14.6043 7.21318 11.3559C7.21318 11.2571 7.20682 11.1583 7.20258 11.0606C7.24918 9.28768 7.18459 7.13525 6.85734 5.63583C6.65612 4.94746 6.41042 4.24871 6.17319 3.55618C6.03128 3.87957 5.89043 4.18008 5.74957 4.44003C5.76864 3.73087 5.78664 3.02172 5.63202 2.74929C5.26453 1.24051 4.83562 2.09524 4.25526 2.67546C4.00003 3.09138 3.60712 2.52884 3.34659 3.18289C3.3593 2.71185 3.36459 2.47477 3.37836 2.00165C3.13478 1.94758 3.50227 3.4574 3.10407 3.12882C3.19727 2.67442 3.04794 2.1649 3.06065 1.69387C2.73128 1.85712 2.93674 3.32846 2.61267 3.2536C2.53748 2.99884 3.0543 1.92783 2.64974 1.83632C2.56925 1.81865 2.55654 2.29072 2.55019 2.52676C2.42628 1.07101 2.04079 0.272433 1.59705 1.59924C1.6087 1.1386 1.78026 0.486636 1.72519 0L1.71884 0C1.70507 0.243318 1.6214 0.662366 1.61293 0.886967L1.63517 0.0551104C1.57798 0.0987828 1.52291 0.148694 1.46678 0.200685C1.41281 0.40659 1.38052 0.617392 1.37041 0.829775C1.37041 0.646766 1.37994 0.462719 1.38524 0.278671C1.24638 0.425233 1.1196 0.582393 1.0061 0.748669C0.74557 1.40272 0.363253 2.02973 0.353722 2.38327C0.162034 5.24901 0.0264762 8.121 0 10.9774Z" fill="url(#paint0_linear_143_457)" fill-opacity="0.8"/>
<path d="M10.7803 10.9774C10.9307 10.9826 11.081 10.8308 11.1509 11.0668C11.2929 11.8124 10.7887 12.4113 10.9317 13.1569L11.1753 13.2109C11.0694 13.788 10.936 14.388 10.8216 15.0025C10.8569 16.1318 10.9151 17.2562 10.9963 18.3757C11.0853 18.3466 11.1668 18.3331 11.1986 18.4443C11.2643 18.9102 11.1785 19.5549 11.1531 20.2235C11.1679 20.3212 11.1817 20.42 11.1954 20.5177C11.2425 20.5752 11.3105 20.6125 11.385 20.6217C11.3776 20.9243 11.3543 21.1926 11.3278 21.4421C11.8065 24.7217 12.3688 28.0523 12.9238 31.6625C13.1483 32.4258 13.3718 33.19 13.4745 33.9252C13.5677 35.0149 13.4088 36.4062 13.3802 37.4689C14.2391 37.3056 14.6585 39.8958 15.5269 39.379C15.5079 40.0872 15.4793 41.1467 15.7229 41.205C16.4504 41.3703 17.2892 41.9152 17.7276 43.7962C17.8335 44.5324 17.5243 45.6679 17.6715 45.9226C17.9045 46.3313 18.1851 44.9681 18.4128 45.3767C18.6765 39.9052 18.361 34.6364 18.3673 29.1275C17.9871 27.2558 17.8198 14.6043 17.9882 11.3559C17.9882 11.2571 17.9818 11.1583 17.9776 11.0606C18.0252 9.28768 17.9596 7.13525 17.6334 5.63583C17.4311 4.94746 17.1854 4.24871 16.9482 3.55618C16.8073 3.87957 16.6654 4.18008 16.5246 4.44003C16.5426 3.73087 16.5616 3.02172 16.4059 2.74929C16.0395 1.24051 15.6095 2.09524 15.0292 2.67546C14.7739 3.09138 14.3821 2.52884 14.1216 3.18289C14.1332 2.71185 14.1396 2.47477 14.1523 2.00165C13.9098 1.94758 14.2762 3.4574 13.878 3.12882C13.9712 2.67442 13.8229 2.1649 13.8356 1.69387C13.5052 1.85712 13.7107 3.32846 13.3866 3.2536C13.3125 2.99884 13.8293 1.92783 13.4247 1.83632C13.3432 1.81865 13.3315 2.29072 13.3252 2.52676C13.2002 1.07101 12.8147 0.272433 12.372 1.59924C12.3847 1.1386 12.5563 0.486636 12.5002 0L12.4938 0C12.48 0.243318 12.3964 0.662366 12.3879 0.886967C12.3953 0.611414 12.4027 0.333782 12.4102 0.0551104C12.353 0.0987828 12.2968 0.148694 12.2407 0.200685C12.1866 0.406523 12.1546 0.617378 12.1454 0.829775C12.1454 0.646766 12.1549 0.462719 12.1592 0.278671C12.0207 0.425258 11.8942 0.582418 11.7811 0.748669C11.5195 1.40272 11.1372 2.02973 11.1276 2.38327C10.9434 5.24901 10.8078 8.121 10.7803 10.9774Z" fill="url(#paint1_linear_143_457)" fill-opacity="0.8"/>
<path d="M34.7421 31.4102V14.4051H44.1192C44.9614 14.4051 45.7063 14.5914 46.3541 14.9639C47.0182 15.3363 47.5364 15.8465 47.9089 16.4943C48.2976 17.1421 48.4919 17.8952 48.4919 18.7535C48.4919 19.3204 48.3705 19.8629 48.1275 20.3812C47.9008 20.8994 47.585 21.3529 47.1801 21.7416C46.7752 22.1141 46.3056 22.4056 45.7711 22.6161C46.3865 22.7943 46.9291 23.0939 47.3987 23.515C47.8846 23.936 48.2652 24.4381 48.5405 25.0211C48.8158 25.6042 48.9535 26.2277 48.9535 26.8917C48.9535 27.7662 48.751 28.5436 48.3462 29.2238C47.9575 29.904 47.4149 30.4384 46.7185 30.8271C46.0383 31.2158 45.2529 31.4102 44.3621 31.4102H34.7421ZM37.633 28.8351H43.5848C44.0706 28.8351 44.4998 28.7298 44.8723 28.5193C45.2448 28.2926 45.5282 27.993 45.7225 27.6205C45.9331 27.2318 46.0383 26.8269 46.0383 26.4058C46.0383 25.9685 45.9331 25.5718 45.7225 25.2155C45.512 24.843 45.2205 24.5434 44.848 24.3166C44.4755 24.0899 44.0382 23.9765 43.5362 23.9765H37.633V28.8351ZM37.633 21.5229H43.2204C43.6738 21.5229 44.0787 21.4177 44.435 21.2071C44.8075 20.9966 45.0909 20.7213 45.2853 20.3812C45.4958 20.0249 45.6011 19.6443 45.6011 19.2394C45.6011 18.8183 45.5039 18.4377 45.3095 18.0976C45.1152 17.7575 44.8399 17.4822 44.4836 17.2717C44.1435 17.0611 43.7467 16.9559 43.2932 16.9559H37.633V21.5229ZM51.631 31.4102V19.0208H54.4247V31.4102H51.631ZM53.0157 17.296C52.5299 17.296 52.1088 17.1178 51.7525 16.7615C51.3962 16.4052 51.218 15.9842 51.218 15.4983C51.218 15.0124 51.3962 14.5914 51.7525 14.2351C52.1088 13.8788 52.5299 13.7006 53.0157 13.7006C53.5178 13.7006 53.9388 13.8788 54.2789 14.2351C54.6352 14.5914 54.8134 15.0124 54.8134 15.4983C54.8134 15.9842 54.6352 16.4052 54.2789 16.7615C53.9388 17.1178 53.5178 17.296 53.0157 17.296ZM59.646 36.3416V33.9609H65.865C66.286 33.9609 66.6099 33.8313 66.8367 33.5722C67.0796 33.3131 67.2011 32.9892 67.2011 32.6005V29.3938H67.1768C66.8205 29.8311 66.4399 30.2117 66.035 30.5356C65.6301 30.8433 65.1686 31.0863 64.6503 31.2644C64.1483 31.4264 63.5895 31.5073 62.9741 31.5073C61.8404 31.5073 60.8282 31.2401 59.9375 30.7057C59.0467 30.1712 58.3423 29.4262 57.824 28.4707C57.322 27.499 57.0709 26.3896 57.0709 25.1426C57.0709 23.9279 57.322 22.8429 57.824 21.8873C58.3423 20.9156 59.0791 20.1463 60.0347 19.5795C60.9902 19.0127 62.1562 18.7293 63.5328 18.7293C64.8447 18.7293 65.9783 19.0046 66.9338 19.5552C67.9056 20.1059 68.6586 20.8832 69.1931 21.8873C69.7275 22.8752 69.9948 24.0332 69.9948 25.3612V32.722C69.9948 33.8394 69.6708 34.7221 69.023 35.3699C68.3752 36.0177 67.4926 36.3416 66.3751 36.3416H59.646ZM63.5085 29.1266C64.2535 29.1266 64.8932 28.9566 65.4277 28.6165C65.9783 28.2602 66.3994 27.7905 66.6909 27.2075C66.9986 26.6083 67.1525 25.9443 67.1525 25.2155C67.1525 24.4381 67.0067 23.7417 66.7152 23.1263C66.4237 22.5109 66.0026 22.025 65.452 21.6687C64.9175 21.2962 64.2697 21.11 63.5085 21.11C62.7636 21.11 62.1158 21.2962 61.5651 21.6687C61.0307 22.025 60.6177 22.5109 60.3262 23.1263C60.0347 23.7255 59.8889 24.4057 59.8889 25.1669C59.8889 25.8957 60.0347 26.5597 60.3262 27.1589C60.6177 27.7581 61.0307 28.2359 61.5651 28.5922C62.1158 28.9485 62.7636 29.1266 63.5085 29.1266ZM79.7208 31.4102V28.8594H87.033C87.5027 28.8594 87.9075 28.746 88.2476 28.5193C88.6039 28.2926 88.8793 28.0011 89.0736 27.6448C89.2841 27.2723 89.3894 26.8836 89.3894 26.4787C89.3894 26.0414 89.2922 25.6446 89.0979 25.2883C88.9036 24.932 88.6282 24.6486 88.2719 24.4381C87.9318 24.2276 87.5351 24.1223 87.0816 24.1223H84.045C83.0895 24.1223 82.2311 23.9279 81.4699 23.5393C80.7249 23.1344 80.1338 22.5756 79.6965 21.863C79.2593 21.1504 79.0406 20.3083 79.0406 19.3366C79.0406 18.3649 79.2512 17.5146 79.6723 16.7858C80.0933 16.0408 80.6683 15.4578 81.397 15.0367C82.1258 14.6157 82.9518 14.4051 83.8749 14.4051H91.1871V16.9559H84.1421C83.7211 16.9559 83.3405 17.0611 83.0004 17.2717C82.6603 17.4822 82.3931 17.7575 82.1987 18.0976C82.0206 18.4377 81.9315 18.8021 81.9315 19.1908C81.9315 19.5957 82.0206 19.9682 82.1987 20.3083C82.3931 20.6322 82.6522 20.8994 82.9761 21.11C83.3162 21.3043 83.6968 21.4015 84.1179 21.4015H87.2273C88.2638 21.4015 89.1546 21.6039 89.8996 22.0088C90.6607 22.4137 91.2438 22.9724 91.6487 23.685C92.0697 24.3976 92.2803 25.2155 92.2803 26.1386C92.2803 27.2237 92.0616 28.163 91.6244 28.9566C91.2033 29.7339 90.6203 30.3413 89.8753 30.7785C89.1465 31.1996 88.3205 31.4102 87.3974 31.4102H79.7208ZM94.9028 31.4102V13.6763H97.6965V20.2597C98.1985 19.7253 98.7815 19.3366 99.4455 19.0936C100.11 18.8507 100.782 18.7293 101.462 18.7293C102.596 18.7293 103.559 18.9722 104.353 19.458C105.162 19.9277 105.778 20.5836 106.199 21.4258C106.62 22.2517 106.831 23.1992 106.831 24.268V31.4102H104.061V24.2923C104.061 23.6607 103.907 23.1101 103.6 22.6404C103.308 22.1546 102.919 21.7821 102.434 21.5229C101.964 21.2476 101.438 21.11 100.855 21.11C100.304 21.11 99.7856 21.2395 99.2998 21.4986C98.8139 21.7578 98.4252 22.1222 98.1337 22.5918C97.8422 23.0615 97.6965 23.5959 97.6965 24.1952V31.4102H94.9028ZM115.209 31.7017C114.027 31.7017 113.007 31.4102 112.148 30.8271C111.29 30.2441 110.626 29.4667 110.156 28.495C109.703 27.5071 109.476 26.422 109.476 25.2398C109.476 24.0089 109.735 22.9076 110.254 21.9359C110.788 20.948 111.541 20.1706 112.513 19.6038C113.501 19.0208 114.675 18.7293 116.035 18.7293C117.38 18.7293 118.521 19.0208 119.461 19.6038C120.416 20.1706 121.145 20.948 121.647 21.9359C122.165 22.9076 122.424 23.9927 122.424 25.1912V31.4102H119.631V29.1023H119.582C119.339 29.5558 119.023 29.985 118.635 30.3899C118.246 30.7785 117.768 31.0943 117.201 31.3373C116.635 31.5802 115.971 31.7017 115.209 31.7017ZM115.962 29.321C116.691 29.321 117.323 29.1428 117.857 28.7865C118.408 28.414 118.837 27.9201 119.145 27.3047C119.453 26.673 119.598 25.9685 119.582 25.1912C119.582 24.4138 119.436 23.7255 119.145 23.1263C118.853 22.5109 118.44 22.025 117.906 21.6687C117.371 21.2962 116.732 21.11 115.987 21.11C115.209 21.11 114.545 21.2962 113.995 21.6687C113.444 22.025 113.023 22.5109 112.731 23.1263C112.44 23.7417 112.294 24.4381 112.294 25.2155C112.294 25.9766 112.44 26.673 112.731 27.3047C113.023 27.9201 113.436 28.414 113.97 28.7865C114.521 29.1428 115.185 29.321 115.962 29.321ZM125.67 31.4102V22.5432C125.67 21.442 125.978 20.5836 126.593 19.9682C127.225 19.3366 128.091 19.0208 129.192 19.0208H132.18V21.4015H129.703C129.314 21.4015 129.006 21.5148 128.779 21.7416C128.569 21.9683 128.464 22.276 128.464 22.6647V31.4102H125.67ZM140.385 31.4102C138.993 31.4102 137.77 31.151 136.717 30.6328C135.681 30.0983 134.871 29.3696 134.288 28.4464C133.705 27.5071 133.413 26.4301 133.413 25.2155C133.413 23.936 133.672 22.8105 134.191 21.8387C134.709 20.867 135.422 20.1059 136.328 19.5552C137.235 19.0046 138.28 18.7293 139.462 18.7293C140.79 18.7293 141.883 19.0127 142.742 19.5795C143.6 20.1463 144.232 20.9075 144.637 21.863C145.058 22.8186 145.268 23.8875 145.268 25.0697C145.268 25.2317 145.26 25.4179 145.244 25.6284C145.228 25.839 145.203 26.0009 145.171 26.1143H136.377C136.474 26.7621 136.709 27.3047 137.082 27.7419C137.454 28.163 137.924 28.4869 138.491 28.7136C139.057 28.9242 139.689 29.0295 140.385 29.0295H143.713V31.4102H140.385ZM136.353 24.2195H142.475C142.458 23.9117 142.41 23.604 142.329 23.2963C142.264 22.9886 142.151 22.6971 141.989 22.4218C141.843 22.1465 141.649 21.9116 141.406 21.7173C141.179 21.5067 140.904 21.3448 140.58 21.2314C140.256 21.1019 139.883 21.0371 139.462 21.0371C138.976 21.0371 138.547 21.1343 138.175 21.3286C137.802 21.5067 137.486 21.7497 137.227 22.0574C136.968 22.3489 136.766 22.689 136.62 23.0777C136.49 23.4502 136.401 23.8308 136.353 24.2195Z" fill="#111714"/>
<defs>
<linearGradient id="paint0_linear_143_457" x1="3.87123" y1="0" x2="3.87123" y2="46" gradientUnits="userSpaceOnUse">
<stop offset="0.25" stop-color="#1DBF73"/>
<stop offset="1" stop-color="#0071D7"/>
</linearGradient>
<linearGradient id="paint1_linear_143_457" x1="14.6492" y1="0" x2="14.6492" y2="46" gradientUnits="userSpaceOnUse">
<stop offset="0.25" stop-color="#1DBF73"/>
<stop offset="1" stop-color="#0071D7"/>
</linearGradient>
</defs>
</svg>
