<svg width="82" height="75" viewBox="0 0 82 75" fill="none" xmlns="http://www.w3.org/2000/svg">
<path d="M26.2654 2.8706L22.2862 11.0694L4.1323 48.4854L3.65459 49.4703L1.93324 53.0204L-0.000289271 57.0043L64.7364 66.2662L73.9296 47.32L26.2654 2.8706Z" fill="#AD4A27"/>
<path d="M33.3128 40.5731C33.1675 40.5585 32.9931 40.5585 32.8332 40.5731C29.3745 40.4564 26.6279 37.6127 26.6279 34.1127C26.6279 30.5398 29.5053 27.6377 33.0803 27.6377C36.6407 27.6377 39.5326 30.5398 39.5326 34.1127C39.5181 37.6127 36.7715 40.4564 33.3128 40.5731Z" stroke="#FAEDDD" stroke-width="1.5" stroke-linecap="round" stroke-linejoin="round"/>
<path d="M43.8481 30.5537C46.6674 30.5537 48.9344 32.8433 48.9344 35.6579C48.9344 38.4141 46.7546 40.66 44.037 40.762C43.9208 40.7475 43.79 40.7475 43.6592 40.762" stroke="#FAEDDD" stroke-width="1.5" stroke-linecap="round" stroke-linejoin="round"/>
<path d="M26.0468 45.9537C22.53 48.3162 22.53 52.1662 26.0468 54.5141C30.0432 57.1975 36.5972 57.1975 40.5936 54.5141C44.1104 52.1516 44.1104 48.3016 40.5936 45.9537C36.6117 43.285 30.0577 43.285 26.0468 45.9537Z" stroke="#FAEDDD" stroke-width="1.5" stroke-linecap="round" stroke-linejoin="round"/>
<path d="M46.6533 53.8877C47.6996 53.6689 48.6878 53.246 49.5016 52.6189C51.7687 50.9127 51.7687 48.0981 49.5016 46.3919C48.7024 45.7794 47.7287 45.371 46.6969 45.1377" stroke="#FAEDDD" stroke-width="1.5" stroke-linecap="round" stroke-linejoin="round"/>
</svg>
