<svg width="82" height="75" viewBox="0 0 82 75" fill="none" xmlns="http://www.w3.org/2000/svg">
<path d="M26.2663 2.8706L22.2872 11.0694L4.13328 48.4854L3.65557 49.4703L1.93421 53.0204L0.000687219 57.0043L64.7374 66.2662L73.9305 47.32L26.2663 2.8706Z" fill="#AD4A27"/>
<path d="M32.6484 45.6879C32.6484 47.5691 34.0922 49.0858 35.8859 49.0858H39.5464C41.1068 49.0858 42.3755 47.7587 42.3755 46.1254C42.3755 44.3462 41.6026 43.7191 40.4505 43.3108L34.5734 41.2691C33.4214 40.8608 32.6484 40.2337 32.6484 38.4546C32.6484 36.8212 33.9172 35.4941 35.4776 35.4941H39.138C40.9318 35.4941 42.3755 37.0108 42.3755 38.8921" stroke="#FAEDDD" stroke-width="1.5" stroke-linecap="round" stroke-linejoin="round"/>
<path d="M37.502 33.54V51.04" stroke="#FAEDDD" stroke-width="1.5" stroke-linecap="round" stroke-linejoin="round"/>
<path d="M37.5023 56.8737C45.5564 56.8737 52.0856 50.3445 52.0856 42.2904C52.0856 34.2362 45.5564 27.707 37.5023 27.707C29.4481 27.707 22.9189 34.2362 22.9189 42.2904C22.9189 50.3445 29.4481 56.8737 37.5023 56.8737Z" stroke="#FAEDDD" stroke-width="1.5" stroke-linecap="round" stroke-linejoin="round"/>
</svg>
