<svg width="1378" height="292" viewBox="0 0 1378 292" fill="none" xmlns="http://www.w3.org/2000/svg">
<path d="M83.9441 35.5352L81.7035 53.3807C77.5329 47.2179 72.4972 42.2743 66.4631 38.7052C59.8745 34.8258 52.3985 32.875 43.9908 32.875C35.5831 32.875 27.6412 34.848 21.0526 38.7718C14.4639 42.7178 9.31727 48.1933 5.59037 55.2429C1.86346 62.2924 0 70.5168 0 79.9384C0 89.36 1.86346 97.3184 5.59037 104.412C9.31727 111.506 14.4861 117.004 21.0526 120.883C27.6412 124.763 35.2725 126.714 43.9908 126.714C52.7091 126.714 59.8745 124.763 66.4631 120.883C72.5194 117.314 77.5551 112.349 81.6591 106.119L83.9441 124.231H116.909L111.319 79.8054L116.909 35.513H83.9441V35.5352ZM65.7532 99.6239C61.9154 101.53 57.8336 102.506 53.4633 102.506C49.0931 102.506 45.6324 101.553 42.4157 99.6239C39.199 97.7174 36.6923 95.0351 34.8732 91.6212C33.0541 88.2072 32.1446 84.3278 32.1446 79.9606C32.1446 75.5934 33.0541 71.581 34.8732 68.1449C36.6923 64.731 39.199 62.0264 42.4157 60.0756C45.6324 58.1026 49.3149 57.1272 53.4633 57.1272C57.8114 57.1272 61.9154 58.1026 65.7532 60.0756C69.5911 62.0485 72.963 64.731 75.8691 68.1449C78.7752 71.5588 80.9492 75.5048 82.3912 79.9606C80.9271 84.3056 78.753 88.1851 75.8691 91.6212C72.963 95.0351 69.5911 97.7174 65.7532 99.6239Z" fill="#FAEDDD"/>
<path d="M273.329 124.253V35.5352H225.589L202.939 95.3898L179.868 35.5352H132.15V124.253H161.988V60.2973L188.276 124.253H217.359L243.625 60.0312V124.253H273.329Z" fill="#FAEDDD"/>
<path d="M315.212 119.82C324.085 124.431 334.778 126.737 347.312 126.737C358.293 126.737 367.832 124.963 375.929 121.461C384.027 117.936 390.305 112.948 394.83 106.475C399.333 100.002 401.596 92.42 401.596 83.7078C401.596 75.7272 399.733 68.6998 396.006 62.5813C392.279 56.4629 387.044 51.7632 380.3 48.4379C373.556 45.1126 365.68 43.4722 356.674 43.4722C349.73 43.4722 343.297 44.4919 337.396 46.5093C331.495 48.5266 326.459 51.4084 322.311 55.1327C318.783 58.3028 316.144 62.0049 314.28 66.2169C314.524 55.1771 317.563 46.6866 323.486 40.7677C329.654 34.6049 339.37 31.2574 352.636 30.7475C360.312 30.4372 366.701 30.0825 371.848 29.6613C376.972 29.2401 381.254 28.7302 384.67 28.1095C388.086 27.4888 391.037 26.7129 393.543 25.7818V0C391.369 0.731556 389.107 1.35226 386.777 1.86213C384.448 2.37201 381.653 2.88191 378.392 3.34745C375.131 3.81298 370.96 4.27853 365.88 4.74406C360.8 5.2096 354.367 5.76379 346.602 6.3845C327.746 8.04713 313.215 14.1878 303.077 24.8064C292.917 35.4251 287.837 49.901 287.837 68.2342C287.837 80.5599 290.188 91.0899 294.914 99.8464C299.639 108.603 306.427 115.276 315.278 119.887L315.212 119.82ZM331.539 70.0964C336.464 66.9485 341.988 65.3524 348.088 65.3524C352.437 65.3524 356.23 66.1282 359.447 67.68C362.663 69.2318 365.148 71.4043 366.9 74.1975C368.653 76.9907 369.54 80.3603 369.54 84.3063C369.54 88.0306 368.653 91.3559 366.9 94.2599C365.148 97.164 362.641 99.3808 359.447 100.933C356.23 102.484 352.459 103.26 348.088 103.26C341.256 103.26 335.311 101.42 330.297 97.7403C325.261 94.0604 322.022 89.2277 320.58 83.2201C322.954 77.6337 326.614 73.2443 331.539 70.0964Z" fill="#FAEDDD"/>
<path d="M477.864 120.906C483.921 117.336 488.956 112.371 493.06 106.141L495.345 124.253H528.311L522.72 79.8276L528.311 35.5352H495.345L493.105 53.3807C488.934 47.2179 483.899 42.2743 477.864 38.7052C471.276 34.8258 463.8 32.875 455.392 32.875C446.984 32.875 439.043 34.848 432.454 38.7718C425.865 42.7178 420.719 48.1933 416.992 55.2429C413.265 62.2924 411.401 70.5168 411.401 79.9384C411.401 89.36 413.265 97.3184 416.992 104.412C420.719 111.506 425.887 117.004 432.454 120.883C439.043 124.763 446.674 126.714 455.392 126.714C464.11 126.714 471.276 124.763 477.864 120.883V120.906ZM446.297 91.6212C444.478 88.2072 443.568 84.3278 443.568 79.9606C443.568 75.5934 444.478 71.581 446.297 68.1449C448.116 64.731 450.623 62.0264 453.839 60.0756C457.056 58.1026 460.739 57.1272 464.887 57.1272C469.235 57.1272 473.339 58.1026 477.177 60.0756C481.015 62.0485 484.387 64.731 487.293 68.1449C490.199 71.5588 492.373 75.5048 493.815 79.9606C492.351 84.3056 490.177 88.1851 487.293 91.6212C484.387 95.0351 481.015 97.7174 477.177 99.6239C473.339 101.53 469.257 102.506 464.887 102.506C460.517 102.506 457.056 101.553 453.839 99.6239C450.623 97.7174 448.116 95.0351 446.297 91.6212Z" fill="#FAEDDD"/>
<path d="M593.909 126.737C603.758 126.737 612.654 125.075 620.574 121.771C628.493 118.468 634.949 113.791 639.94 107.783C644.909 101.776 647.816 94.7925 648.659 86.8119H617.091C616.048 91.7776 613.43 95.7679 609.238 98.7828C605.045 101.798 599.943 103.283 593.931 103.283C589.272 103.283 585.19 102.374 581.729 100.556C578.247 98.7385 575.562 96.1005 573.655 92.6422C571.725 89.1618 570.771 84.9498 570.771 79.9841C570.771 75.0184 571.725 70.629 573.655 67.1708C575.562 63.6903 578.269 61.0523 581.729 59.2567C585.19 57.4389 589.272 56.5299 593.931 56.5299C599.943 56.5299 605.023 57.9487 609.171 60.8084C613.319 63.6681 615.959 67.7249 617.091 73.001H648.659C647.838 64.9317 644.932 57.9043 639.94 51.9411C634.971 45.9778 628.515 41.3224 620.574 37.9528C612.654 34.5832 603.758 32.8984 593.909 32.8984C583.016 32.8984 573.433 34.8936 565.136 38.8839C556.839 42.8742 550.361 48.3941 545.703 55.4215C541.044 62.471 538.715 70.6512 538.715 79.9619C538.715 89.2726 541.044 97.3197 545.703 104.347C550.361 111.397 556.839 116.872 565.136 120.818C573.433 124.764 583.016 126.715 593.909 126.715V126.737Z" fill="#FAEDDD"/>
<path d="M723.973 120.906C730.029 117.336 735.065 112.371 739.169 106.141L741.454 124.253H774.419L768.829 79.8276L774.419 35.5352H741.454L739.213 53.3807C735.043 47.2179 730.007 42.2743 723.973 38.7052C717.384 34.8258 709.908 32.875 701.501 32.875C693.093 32.875 685.151 34.848 678.562 38.7718C671.974 42.7178 666.827 48.1933 663.1 55.2429C659.373 62.2924 657.51 70.5168 657.51 79.9384C657.51 89.36 659.373 97.3184 663.1 104.412C666.827 111.506 671.996 117.004 678.562 120.883C685.151 124.763 692.782 126.714 701.501 126.714C710.219 126.714 717.384 124.763 723.973 120.883V120.906ZM692.405 91.6212C690.586 88.2072 689.676 84.3278 689.676 79.9606C689.676 75.5934 690.586 71.581 692.405 68.1449C694.224 64.731 696.731 62.0264 699.948 60.0756C703.164 58.1026 706.847 57.1272 710.995 57.1272C715.343 57.1272 719.447 58.1026 723.285 60.0756C727.123 62.0485 730.495 64.731 733.401 68.1449C736.307 71.5588 738.481 75.5048 739.923 79.9606C738.459 84.3056 736.285 88.1851 733.401 91.6212C730.495 95.0351 727.123 97.7174 723.285 99.6239C719.447 101.53 715.366 102.506 710.995 102.506C706.625 102.506 703.164 101.553 699.948 99.6239C696.731 97.7174 694.224 95.0351 692.405 91.6212Z" fill="#FAEDDD"/>
<path d="M916.064 145.533V100.62H899.892V35.5117H802.26C802.881 40.3888 803.347 45.1549 803.658 49.8103C803.968 54.4656 804.124 58.8771 804.124 63.0226C804.124 81.3115 801.195 93.8367 795.383 100.62H783.759V145.533H811.112V124.252H888.689V145.533H916.064ZM832.275 59.0766C832.275 58.8993 832.231 58.7219 832.209 58.5224H868.346V101.086H826.33C830.589 93.2825 832.741 82.7525 832.741 69.385C832.741 66.2814 832.586 62.8453 832.275 59.0545V59.0766Z" fill="#FAEDDD"/>
<path d="M1029.27 104.436C1034.04 97.3419 1036.41 89.1839 1036.41 79.9619C1036.41 70.7399 1034.04 62.2937 1029.27 55.2663C1024.5 48.2168 1017.84 42.7412 1009.28 38.7952C1000.74 34.8493 990.801 32.8984 979.509 32.8984C968.218 32.8984 958.146 34.8714 949.65 38.7952C941.153 42.7412 934.52 48.2168 929.751 55.2663C924.981 62.3159 922.607 70.5403 922.607 79.9619C922.607 89.3835 924.981 97.3419 929.751 104.436C934.52 111.53 941.153 117.027 949.65 120.907C958.146 124.786 968.107 126.737 979.509 126.737C990.912 126.737 1000.74 124.786 1009.28 120.907C1017.84 117.027 1024.5 111.53 1029.27 104.436ZM1001.27 92.3983C999.297 95.9231 996.48 98.6055 992.797 100.468C989.115 102.33 984.678 103.261 979.509 103.261C974.34 103.261 969.859 102.33 966.132 100.468C962.405 98.6055 959.544 95.9009 957.592 92.3983C955.617 88.8736 954.641 84.6838 954.641 79.8067C954.641 74.9297 955.617 70.7621 957.592 67.3038C959.566 63.8455 962.405 61.1631 966.132 59.301C969.859 57.4388 974.318 56.5078 979.509 56.5078C984.7 56.5078 989.115 57.4388 992.797 59.301C996.48 61.1631 999.297 63.8234 1001.27 67.3038C1003.25 70.7842 1004.22 74.9962 1004.22 79.9619C1004.22 84.9276 1003.25 88.8736 1001.27 92.3983Z" fill="#FAEDDD"/>
<path d="M1157.29 104.436C1160.97 97.3419 1162.82 89.184 1162.82 79.9619C1162.82 70.7399 1160.97 62.2937 1157.29 55.2663C1153.61 48.2168 1148.49 42.7412 1141.9 38.7952C1135.31 34.8493 1127.68 32.8984 1118.96 32.8984C1110.24 32.8984 1103.05 34.8493 1096.42 38.7287C1090.56 42.1427 1085.68 46.8646 1081.64 52.6948V35.5365H1049.77V149.881H1081.64V106.786C1085.66 112.705 1090.54 117.471 1096.42 120.907C1103.05 124.786 1110.57 126.737 1118.96 126.737C1127.34 126.737 1135.31 124.786 1141.9 120.907C1148.49 117.027 1153.61 111.53 1157.29 104.436ZM1128.08 91.6225C1126.26 95.0364 1123.73 97.7188 1120.47 99.6252C1117.21 101.532 1113.5 102.507 1109.35 102.507C1105.2 102.507 1101.06 101.554 1097.22 99.6252C1093.38 97.7188 1090.01 95.0364 1087.1 91.6225C1084.2 88.2086 1081.98 84.3291 1080.42 79.9619C1081.98 75.5061 1084.22 71.5823 1087.1 68.1462C1090.01 64.7323 1093.38 62.0277 1097.22 60.0769C1101.06 58.1039 1105.09 57.1285 1109.35 57.1285C1113.61 57.1285 1117.21 58.1039 1120.47 60.0769C1123.73 62.0499 1126.28 64.7323 1128.08 68.1462C1129.9 71.5601 1130.8 75.5061 1130.8 79.9619C1130.8 84.4178 1129.9 88.1864 1128.08 91.6225Z" fill="#FAEDDD"/>
<path d="M1288.29 124.253V35.5352H1247.56L1207.92 94.636V35.5352H1176.5V124.253H1216.15L1257.03 63.29V124.253H1288.29Z" fill="#FAEDDD"/>
<path d="M404.214 149.836H290.255C290.987 156.575 291.542 163.048 291.963 169.255C292.385 175.463 292.584 181.426 292.584 187.123C292.584 199.56 291.608 209.979 289.634 218.425C287.726 226.605 284.775 233.1 280.827 237.933H266.008V289.829H296.178V266.375H394.12V289.829H424.29V237.933H404.236V149.836H404.214ZM322.2 181.071C322.155 180.051 322.045 178.987 321.978 177.968H371.87V238.243H313.615C315.944 234.519 317.83 229.93 319.227 224.41C321.357 216.119 322.422 205.922 322.422 193.796C322.422 189.761 322.355 185.505 322.178 181.049L322.2 181.071Z" fill="#FAEDDD"/>
<path d="M528.844 180.914C522.255 176.968 514.624 175.018 505.906 175.018C497.187 175.018 490 176.968 483.367 180.848C477.51 184.262 472.63 188.984 468.592 194.814V177.656H436.714V292H468.592V248.905C472.607 254.824 477.488 259.59 483.367 263.026C490 266.905 497.52 268.856 505.906 268.856C514.291 268.856 522.255 266.905 528.844 263.026C535.432 259.146 540.557 253.649 544.239 246.555C547.922 239.461 549.763 231.303 549.763 222.081C549.763 212.859 547.922 204.413 544.239 197.385C540.557 190.336 535.432 184.86 528.844 180.914ZM515.001 233.742C513.182 237.156 510.653 239.838 507.392 241.744C504.131 243.651 500.426 244.626 496.278 244.626C492.129 244.626 487.981 243.673 484.143 241.744C480.305 239.838 476.933 237.156 474.027 233.742C471.121 230.328 468.903 226.448 467.35 222.081C468.903 217.625 471.143 213.701 474.027 210.265C476.933 206.851 480.305 204.147 484.143 202.196C487.981 200.223 492.018 199.248 496.278 199.248C500.537 199.248 504.131 200.223 507.392 202.196C510.653 204.169 513.204 206.851 515.001 210.265C516.82 213.679 517.73 217.625 517.73 222.081C517.73 226.537 516.82 230.306 515.001 233.742Z" fill="#FAEDDD"/>
<path d="M646.063 180.914C637.523 176.968 627.584 175.018 616.293 175.018C605.001 175.018 594.929 176.991 586.433 180.914C577.936 184.86 571.303 190.336 566.534 197.385C561.764 204.435 559.391 212.659 559.391 222.081C559.391 231.503 561.764 239.461 566.534 246.555C571.303 253.649 577.936 259.146 586.433 263.026C594.929 266.905 604.89 268.856 616.293 268.856C627.695 268.856 637.523 266.905 646.063 263.026C654.626 259.146 661.282 253.649 666.051 246.555C670.821 239.461 673.194 231.303 673.194 222.081C673.194 212.859 670.821 204.413 666.051 197.385C661.282 190.336 654.626 184.86 646.063 180.914ZM638.055 234.517C636.081 238.042 633.263 240.725 629.581 242.587C625.898 244.449 621.461 245.38 616.293 245.38C611.124 245.38 606.643 244.449 602.916 242.587C599.189 240.725 596.327 238.02 594.375 234.517C592.4 230.993 591.424 226.803 591.424 221.926C591.424 217.049 592.4 212.881 594.375 209.423C596.349 205.965 599.189 203.282 602.916 201.42C606.643 199.558 611.101 198.627 616.293 198.627C621.484 198.627 625.898 199.558 629.581 201.42C633.263 203.282 636.081 205.942 638.055 209.423C640.029 212.903 641.005 217.115 641.005 222.081C641.005 227.047 640.029 230.993 638.055 234.517Z" fill="#FAEDDD"/>
<path d="M686.571 266.374H718.45V201.576H763.993V177.656H686.571V266.374Z" fill="#FAEDDD"/>
<path d="M854.415 180.914C845.874 176.968 835.936 175.018 824.644 175.018C813.352 175.018 803.281 176.991 794.784 180.914C786.288 184.86 779.655 190.336 774.885 197.385C770.116 204.435 767.742 212.659 767.742 222.081C767.742 231.503 770.116 239.461 774.885 246.555C779.655 253.649 786.288 259.146 794.784 263.026C803.281 266.905 813.242 268.856 824.644 268.856C836.047 268.856 845.874 266.905 854.415 263.026C862.978 259.146 869.633 253.649 874.403 246.555C879.172 239.461 881.546 231.303 881.546 222.081C881.546 212.859 879.172 204.413 874.403 197.385C869.633 190.336 862.978 184.86 854.415 180.914ZM846.407 234.517C844.432 238.042 841.615 240.725 837.932 242.587C834.25 244.449 829.813 245.38 824.644 245.38C819.475 245.38 814.994 244.449 811.267 242.587C807.54 240.725 804.679 238.02 802.726 234.517C800.752 230.993 799.776 226.803 799.776 221.926C799.776 217.049 800.752 212.881 802.726 209.423C804.701 205.965 807.54 203.282 811.267 201.42C814.994 199.558 819.453 198.627 824.644 198.627C829.835 198.627 834.25 199.558 837.932 201.42C841.615 203.282 844.432 205.942 846.407 209.423C848.381 212.903 849.357 217.115 849.357 222.081C849.357 227.047 848.381 230.993 846.407 234.517Z" fill="#FAEDDD"/>
<path d="M984.325 190.536C977.581 187.21 969.706 185.57 960.699 185.57C953.755 185.57 947.322 186.59 941.421 188.607C935.52 190.624 930.485 193.506 926.336 197.23C922.809 200.4 920.169 204.103 918.306 208.315C918.55 197.275 921.589 188.784 927.512 182.865C933.679 176.703 943.396 173.355 956.662 172.845C964.337 172.535 970.726 172.18 975.873 171.759C980.997 171.338 985.279 170.828 988.695 170.207C992.112 169.586 995.062 168.811 997.569 167.879V142.098C995.395 142.829 993.132 143.45 990.803 143.96C988.473 144.47 985.678 144.98 982.417 145.445C979.156 145.911 974.986 146.376 969.905 146.842C964.825 147.307 958.392 147.861 950.628 148.482C931.771 150.145 917.241 156.285 907.103 166.904C896.942 177.523 891.862 191.999 891.862 210.332C891.862 222.658 894.214 233.187 898.939 241.944C903.664 250.7 910.452 257.373 919.304 261.984C928.177 266.595 938.87 268.901 951.404 268.901C962.385 268.901 971.924 267.127 980.021 263.625C988.118 260.1 994.397 255.112 998.922 248.639C1003.43 242.166 1005.69 234.584 1005.69 225.872C1005.69 217.891 1003.82 210.864 1000.1 204.745C996.371 198.627 991.135 193.927 984.391 190.602L984.325 190.536ZM970.948 236.38C969.195 239.284 966.689 241.501 963.494 243.052C960.278 244.604 956.506 245.38 952.136 245.38C945.303 245.38 939.358 243.54 934.344 239.86C929.309 236.18 926.07 231.347 924.628 225.34C927.002 219.753 930.662 215.364 935.587 212.216C940.512 209.068 946.035 207.472 952.136 207.472C956.484 207.472 960.278 208.248 963.494 209.8C966.711 211.352 969.195 213.524 970.948 216.317C972.701 219.111 973.588 222.48 973.588 226.426C973.588 230.15 972.701 233.476 970.948 236.38Z" fill="#FAEDDD"/>
<path d="M1050.54 236.757V177.656H1019.15V266.374H1058.8L1099.68 205.411V266.374H1130.94V177.656H1090.21L1050.54 236.757Z" fill="#FAEDDD"/>
<path d="M1215.5 206.652C1213.08 209.623 1210.4 212.084 1207.43 213.924C1202.97 216.673 1198.24 218.047 1193.27 218.047C1182.18 218.047 1176.64 212.15 1176.64 200.334V177.656H1144.91V201.731C1144.91 214.877 1148.24 224.941 1154.87 231.88C1161.51 238.819 1171.09 242.299 1183.65 242.299C1192.45 242.299 1200.15 240.504 1206.74 236.935C1210.24 235.028 1213.15 232.745 1215.52 230.107V266.374H1247.4V177.656H1215.52V206.675L1215.5 206.652Z" fill="#FAEDDD"/>
<path d="M1378 177.656H1345.03L1342.79 195.502C1338.62 189.339 1333.59 184.395 1327.55 180.826C1320.97 176.947 1313.49 174.996 1305.08 174.996C1296.67 174.996 1288.73 176.969 1282.14 180.893C1275.55 184.839 1270.41 190.314 1266.68 197.364C1262.95 204.414 1261.09 212.638 1261.09 222.06C1261.09 231.481 1262.95 239.44 1266.68 246.533C1270.41 253.627 1275.58 259.125 1282.14 263.004C1288.73 266.884 1296.36 268.835 1305.08 268.835C1313.8 268.835 1320.97 266.884 1327.55 263.004C1333.61 259.435 1338.65 254.47 1342.75 248.24L1345.03 266.352H1378L1372.41 221.927L1378 177.634V177.656ZM1326.84 241.745C1323.01 243.652 1318.92 244.627 1314.55 244.627C1310.18 244.627 1306.72 243.674 1303.51 241.745C1300.29 239.839 1297.78 237.156 1295.96 233.742C1294.14 230.328 1293.24 226.449 1293.24 222.082C1293.24 217.715 1294.14 213.702 1295.96 210.266C1297.78 206.852 1300.29 204.147 1303.51 202.197C1306.72 200.224 1310.41 199.248 1314.55 199.248C1318.9 199.248 1323.01 200.224 1326.84 202.197C1330.68 204.17 1334.05 206.852 1336.96 210.266C1339.87 213.68 1342.04 217.626 1343.48 222.082C1342.02 226.427 1339.84 230.306 1336.96 233.742C1334.05 237.156 1330.68 239.839 1326.84 241.745Z" fill="#FAEDDD"/>
</svg>
