<svg width="82" height="75" viewBox="0 0 82 75" fill="none" xmlns="http://www.w3.org/2000/svg">
<path d="M26.2595 2.8706L22.2804 11.0694L4.12645 48.4854L3.64873 49.4703L1.92738 53.0204L-0.00614872 57.0043L64.7306 66.2662L73.9237 47.32L26.2595 2.8706Z" fill="#FAEDDD"/>
<path d="M21.4678 56.6973H53.5511" stroke="#AB4629" stroke-width="1.5" stroke-miterlimit="10" stroke-linecap="round" stroke-linejoin="round"/>
<path d="M48.8555 56.7118V50.2529" stroke="#AB4629" stroke-width="1.5" stroke-miterlimit="10" stroke-linecap="round" stroke-linejoin="round"/>
<path d="M48.8851 40.6084C47.1059 40.6084 45.6768 42.0276 45.6768 43.7944V47.0816C45.6768 48.8484 47.1059 50.2676 48.8851 50.2676C50.6643 50.2676 52.0935 48.8484 52.0935 47.0816V43.7944C52.0935 42.0276 50.6643 40.6084 48.8851 40.6084Z" stroke="#AB4629" stroke-width="1.5" stroke-miterlimit="10" stroke-linecap="round" stroke-linejoin="round"/>
<path d="M23.0723 56.6979V33.5707C23.0723 30.6599 24.5307 29.1973 27.4328 29.1973H36.5181C39.4202 29.1973 40.864 30.6599 40.864 33.5707V56.6979" stroke="#AB4629" stroke-width="1.5" stroke-miterlimit="10" stroke-linecap="round" stroke-linejoin="round"/>
<path d="M28.4678 36.7852H35.6865" stroke="#AB4629" stroke-width="1.5" stroke-miterlimit="10" stroke-linecap="round" stroke-linejoin="round"/>
<path d="M28.4678 42.2158H35.6865" stroke="#AB4629" stroke-width="1.5" stroke-miterlimit="10" stroke-linecap="round" stroke-linejoin="round"/>
<path d="M32.041 56.6972V51.2666" stroke="#AB4629" stroke-width="1.5" stroke-miterlimit="10" stroke-linecap="round" stroke-linejoin="round"/>
</svg>
