<svg width="82" height="75" viewBox="0 0 82 75" fill="none" xmlns="http://www.w3.org/2000/svg">
<path d="M26.2663 2.8706L22.2872 11.0694L4.13328 48.4854L3.65557 49.4703L1.93421 53.0204L0.000687219 57.0043L64.7374 66.2662L73.9305 47.32L26.2663 2.8706Z" fill="#FAEDDD"/>
<path d="M34.7693 28.5277L25.9285 34.2589C23.0941 36.0964 23.0941 40.2089 25.9285 42.0464L34.7693 47.7777C36.3554 48.8131 38.9694 48.8131 40.5555 47.7777L49.3523 42.0464C52.1719 40.2089 52.1719 36.111 49.3523 34.2735L40.5555 28.5423C38.9694 27.4923 36.3554 27.4923 34.7693 28.5277Z" stroke="#AB4629" stroke-width="1.5" stroke-linecap="round" stroke-linejoin="round"/>
<path d="M28.2774 43.9131L28.2627 50.7527C28.2627 52.6048 29.7019 54.5881 31.4642 55.1714L36.1489 56.7173C36.9567 56.9798 38.2931 56.9798 39.1155 56.7173L43.8002 55.1714C45.5625 54.5881 47.0017 52.6048 47.0017 50.7527V43.986" stroke="#AB4629" stroke-width="1.5" stroke-linecap="round" stroke-linejoin="round"/>
<path d="M51.4375 46.7129V37.9629" stroke="#AB4629" stroke-width="1.5" stroke-linecap="round" stroke-linejoin="round"/>
</svg>
