<svg width="82" height="75" viewBox="0 0 82 75" fill="none" xmlns="http://www.w3.org/2000/svg">
<path d="M26.2605 2.8706L22.2814 11.0694L4.12742 48.4854L3.64971 49.4703L1.92836 53.0204L-0.00517216 57.0043L64.7315 66.2662L73.9247 47.32L26.2605 2.8706Z" fill="#FAEDDD"/>
<path d="M27.0655 36.5535C27.0655 37.1617 27.1092 37.7554 27.1822 38.3202C27.853 38.0306 28.5821 37.8713 29.3551 37.8713C31.1342 37.8713 32.7092 38.7257 33.6863 40.0291C34.678 38.7257 36.253 37.8713 38.0322 37.8713C41.0217 37.8713 43.4426 40.2897 43.4426 43.2874C43.4426 47.1685 41.3717 50.1372 39.0676 52.1502C39.1405 52.1936 39.2134 52.2081 39.2863 52.2371C39.7238 52.3964 40.453 52.3964 40.8905 52.2371C44.6676 50.9482 53.1113 45.619 53.1113 36.5535C53.1113 32.5565 49.8738 29.3271 45.878 29.3271C43.5009 29.3271 41.4009 30.4567 40.0884 32.209C38.7613 30.4567 36.6613 29.3271 34.2988 29.3271C30.303 29.3271 27.0655 32.5565 27.0655 36.5535Z" stroke="#AB4629" stroke-width="1.5" stroke-linecap="round" stroke-linejoin="round"/>
<path d="M23.9455 43.2872C23.9455 50.0646 30.26 54.0616 33.0892 55.0173C33.4246 55.1332 33.9642 55.1332 34.2996 55.0173C35.51 54.6119 37.3621 53.6416 39.0684 52.15C41.3725 50.137 43.4434 47.1683 43.4434 43.2872C43.4434 40.2895 41.0225 37.8711 38.033 37.8711C36.2538 37.8711 34.6788 38.7255 33.6871 40.0288C32.71 38.7255 31.135 37.8711 29.3559 37.8711C28.5829 37.8711 27.8538 38.0304 27.183 38.32C25.2725 39.16 23.9455 41.057 23.9455 43.2872Z" stroke="#AB4629" stroke-width="1.5" stroke-linecap="round" stroke-linejoin="round"/>
</svg>
