<svg width="82" height="75" viewBox="0 0 82 75" fill="none" xmlns="http://www.w3.org/2000/svg">
<path d="M26.2624 2.8706L22.2833 11.0694L4.12937 48.4854L3.65166 49.4703L1.93031 53.0204L-0.00321903 57.0043L64.7335 66.2662L73.9266 47.32L26.2624 2.8706Z" fill="#FAEDDD"/>
<path d="M47.7184 37.8715C47.7184 39.9714 47.0913 41.8974 46.0122 43.5049C44.4372 45.822 41.9434 47.4584 39.0413 47.8783C38.5455 47.9652 38.0351 48.0087 37.5101 48.0087C36.9851 48.0087 36.4747 47.9652 35.9788 47.8783C33.0768 47.4584 30.583 45.822 29.008 43.5049C27.9288 41.8974 27.3018 39.9714 27.3018 37.8715C27.3018 32.2671 31.8663 27.7344 37.5101 27.7344C43.1538 27.7344 47.7184 32.2671 47.7184 37.8715Z" stroke="#AB4629" stroke-width="1.5" stroke-linecap="round" stroke-linejoin="round"/>
<path d="M50.9994 51.5858L48.5932 52.1506C48.0536 52.2809 47.6307 52.6864 47.514 53.2222L47.0036 55.351C46.7265 56.5096 45.239 56.8571 44.4661 55.9448L37.5098 48.0088L30.5536 55.9592C29.7807 56.8716 28.2932 56.524 28.0161 55.3655L27.5057 53.2367C27.3744 52.7009 26.9515 52.2809 26.4265 52.1651L24.0203 51.6003C22.9119 51.3396 22.5182 49.9638 23.3203 49.1674L29.0078 43.5195C30.5828 45.8366 33.0765 47.473 35.9786 47.893C36.4744 47.9799 36.9848 48.0233 37.5098 48.0233C38.0348 48.0233 38.5453 47.9799 39.0411 47.893C41.9432 47.473 44.4369 45.8366 46.0119 43.5195L51.6994 49.1674C52.5015 49.9494 52.1078 51.3251 50.9994 51.5858Z" stroke="#AB4629" stroke-width="1.5" stroke-linecap="round" stroke-linejoin="round"/>
<path d="M38.3552 33.4979L39.2156 35.2067C39.3322 35.4384 39.6385 35.6701 39.9156 35.7135L41.476 35.9742C42.4677 36.1335 42.701 36.8576 41.9864 37.5672L40.776 38.7691C40.5718 38.9719 40.4552 39.3629 40.5281 39.6525L40.8781 41.1442C41.1552 42.3172 40.5281 42.7806 39.4781 42.1578L38.0197 41.3034C37.7572 41.1441 37.3197 41.1441 37.0572 41.3034L35.5989 42.1578C34.5489 42.7661 33.9218 42.3172 34.1989 41.1442L34.5489 39.6525C34.6072 39.3774 34.5052 38.9719 34.301 38.7691L33.0906 37.5672C32.376 36.8576 32.6093 36.148 33.601 35.9742L35.1614 35.7135C35.4239 35.6701 35.7302 35.4384 35.8468 35.2067L36.7072 33.4979C37.1302 32.571 37.8885 32.571 38.3552 33.4979Z" stroke="#AB4629" stroke-width="1.5" stroke-linecap="round" stroke-linejoin="round"/>
</svg>
