<svg width="604" height="560" viewBox="0 0 604 560" fill="none" xmlns="http://www.w3.org/2000/svg">
<path d="M96.3476 0L81.7463 77.3958L15.1554 430.605L13.404 439.902L7.09516 473.411L0 511.018L570.276 441.734L604 262.888L96.3476 0ZM408.106 398.928H389.412C369.163 398.928 357.474 387.904 356.706 368.524C340.353 389.805 316.208 402.713 288.936 402.713C236.374 402.713 195.876 361.686 195.876 303.914C195.876 246.142 236.767 205.081 290.115 205.081C320.086 205.081 346.179 220.675 362.532 244.991L368.001 208.883H403.03L389.018 303.897V354.43C389.018 360.901 392.915 364.704 399.152 364.704H408.106V398.928Z" fill="#FAEDDD"/>
<path d="M294.011 238.537C259.375 238.537 234.051 265.906 234.051 303.915C234.051 341.906 259.357 369.257 294.011 369.257C329.058 369.257 354.758 341.889 354.758 303.915C354.758 265.906 329.076 238.537 294.011 238.537Z" fill="#FAEDDD"/>
<path d="M386.606 518.449V499.698H397.169V495.459H400.439V502.715H390.413V518.449H386.606Z" fill="#FAEDDD"/>
<path d="M405.997 526.491V504.216C405.997 503.5 405.961 502.768 405.908 502C405.836 501.25 405.783 500.483 405.693 499.715H409.429L409.804 503.954H409.393C409.804 502.541 410.626 501.425 411.859 500.605C413.092 499.785 414.558 499.384 416.256 499.384C417.953 499.384 419.437 499.768 420.724 500.552C421.993 501.337 422.976 502.436 423.673 503.884C424.37 505.332 424.727 507.059 424.727 509.1C424.727 511.106 424.37 512.85 423.673 514.315C422.976 515.78 421.993 516.897 420.724 517.664C419.455 518.432 417.971 518.816 416.256 518.816C414.576 518.816 413.128 518.414 411.895 517.612C410.662 516.81 409.84 515.711 409.429 514.315H409.857V526.526H405.997V526.491ZM415.308 515.85C416.988 515.85 418.329 515.275 419.33 514.141C420.33 513.007 420.831 511.315 420.831 509.082C420.831 506.85 420.33 505.175 419.33 504.041C418.329 502.907 416.988 502.349 415.308 502.349C413.629 502.349 412.288 502.907 411.287 504.041C410.286 505.175 409.786 506.85 409.786 509.082C409.786 511.315 410.286 513.007 411.287 514.141C412.288 515.275 413.629 515.85 415.308 515.85Z" fill="#FAEDDD"/>
<path d="M438.936 518.799C437.238 518.799 435.755 518.415 434.468 517.648C433.199 516.88 432.216 515.764 431.519 514.299C430.822 512.833 430.465 511.107 430.465 509.083C430.465 507.042 430.822 505.315 431.519 503.867C432.216 502.437 433.199 501.321 434.468 500.536C435.737 499.751 437.22 499.367 438.936 499.367C440.616 499.367 442.082 499.768 443.315 500.588C444.566 501.408 445.388 502.524 445.799 503.937H445.37L445.745 499.699H449.481C449.409 500.466 449.338 501.234 449.266 501.984C449.195 502.734 449.177 503.484 449.177 504.199V518.45H445.334V514.281H445.745C445.334 515.677 444.512 516.776 443.243 517.578C442.01 518.38 440.562 518.799 438.936 518.799ZM439.883 515.851C441.528 515.851 442.868 515.275 443.869 514.142C444.87 513.008 445.37 511.316 445.37 509.083C445.37 506.85 444.87 505.176 443.869 504.042C442.868 502.908 441.545 502.35 439.883 502.35C438.203 502.35 436.863 502.908 435.862 504.042C434.861 505.176 434.361 506.85 434.361 509.083C434.361 511.316 434.861 513.008 435.844 514.142C436.827 515.275 438.186 515.851 439.883 515.851Z" fill="#FAEDDD"/>
<path d="M457.004 518.449V499.697H460.811V507.32H470.533V499.697H474.34V518.449H470.533V510.268H460.811V518.449H457.004Z" fill="#FAEDDD"/>
<path d="M486.153 518.449V502.715H479.361V499.697H496.786V502.715H489.959V518.449H486.153Z" fill="#FAEDDD"/>
<path d="M510.047 518.798C508.135 518.798 506.49 518.414 505.096 517.629C503.702 516.844 502.612 515.728 501.862 514.28C501.093 512.833 500.718 511.106 500.718 509.1C500.718 507.094 501.093 505.367 501.862 503.902C502.63 502.454 503.702 501.337 505.096 500.552C506.49 499.768 508.152 499.384 510.047 499.384C511.941 499.384 513.603 499.768 515.015 500.552C516.427 501.337 517.517 502.454 518.286 503.902C519.054 505.349 519.448 507.076 519.448 509.1C519.448 511.123 519.054 512.833 518.286 514.28C517.517 515.728 516.427 516.844 515.015 517.629C513.621 518.397 511.959 518.798 510.047 518.798ZM510.047 515.85C511.727 515.85 513.049 515.275 514.05 514.141C515.051 513.007 515.534 511.315 515.534 509.082C515.534 506.85 515.033 505.175 514.05 504.041C513.067 502.907 511.727 502.349 510.047 502.349C508.403 502.349 507.08 502.907 506.079 504.041C505.096 505.175 504.596 506.85 504.596 509.082C504.596 511.315 505.079 513.007 506.061 514.141C507.044 515.275 508.385 515.85 510.047 515.85Z" fill="#FAEDDD"/>
<path d="M526.132 518.449V499.697H535.819C538.124 499.697 539.84 500.133 540.948 500.988C542.056 501.843 542.61 503.046 542.61 504.616C542.61 505.837 542.199 506.832 541.377 507.634C540.555 508.436 539.464 508.907 538.124 509.082V508.593C539.732 508.663 540.983 509.134 541.895 509.971C542.806 510.809 543.271 511.907 543.271 513.251C543.271 514.855 542.663 516.129 541.43 517.071C540.197 518.013 538.446 518.466 536.194 518.466H526.132V518.449ZM529.76 507.704H535.443C536.587 507.704 537.481 507.459 538.106 506.954C538.732 506.448 539.053 505.785 539.053 504.913C539.053 504.023 538.732 503.325 538.106 502.854C537.481 502.384 536.587 502.122 535.443 502.122H529.76V507.704ZM529.76 516.042H535.854C537.105 516.042 538.052 515.78 538.714 515.274C539.375 514.768 539.697 514.036 539.697 513.059C539.697 512.099 539.375 511.367 538.714 510.861C538.052 510.355 537.105 510.111 535.854 510.111H529.76V516.042Z" fill="#FAEDDD"/>
<path d="M557.212 518.799C555.514 518.799 554.03 518.415 552.744 517.648C551.475 516.88 550.492 515.764 549.795 514.299C549.098 512.833 548.74 511.107 548.74 509.083C548.74 507.042 549.098 505.315 549.795 503.867C550.492 502.437 551.475 501.321 552.744 500.536C554.012 499.751 555.496 499.367 557.212 499.367C558.891 499.367 560.357 499.768 561.59 500.588C562.841 501.408 563.663 502.524 564.074 503.937H563.645L564.021 499.699H567.756C567.685 500.466 567.613 501.234 567.542 501.984C567.47 502.734 567.452 503.484 567.452 504.199V518.45H563.61V514.281H564.021C563.61 515.677 562.788 516.776 561.519 517.578C560.268 518.38 558.82 518.799 557.212 518.799ZM558.159 515.851C559.803 515.851 561.143 515.275 562.144 514.142C563.145 513.008 563.645 511.316 563.645 509.083C563.645 506.85 563.145 505.176 562.144 504.042C561.143 502.908 559.821 502.35 558.159 502.35C556.479 502.35 555.138 502.908 554.138 504.042C553.137 505.176 552.636 506.85 552.636 509.083C552.636 511.316 553.137 513.008 554.12 514.142C555.103 515.275 556.461 515.851 558.159 515.851Z" fill="#FAEDDD"/>
<path d="M376.348 551.94V533.188H393.576V551.94H389.769V536.136H380.154V551.94H376.348Z" fill="#FAEDDD"/>
<path d="M401.441 559.965V537.69C401.441 536.975 401.405 536.242 401.351 535.475C401.28 534.725 401.226 533.957 401.137 533.19H404.872L405.247 537.429H404.836C405.247 536.016 406.069 534.899 407.303 534.079C408.536 533.26 410.001 532.858 411.699 532.858C413.397 532.858 414.88 533.242 416.167 534.027C417.436 534.812 418.419 535.911 419.116 537.359C419.813 538.807 420.17 540.533 420.17 542.574C420.17 544.58 419.813 546.325 419.116 547.79C418.419 549.255 417.436 550.372 416.167 551.139C414.898 551.907 413.415 552.29 411.699 552.29C410.019 552.29 408.572 551.889 407.338 551.087C406.105 550.284 405.283 549.185 404.872 547.79H405.301V560H401.441V559.965ZM410.734 549.325C412.414 549.325 413.754 548.749 414.755 547.615C415.756 546.482 416.256 544.79 416.256 542.557C416.256 540.324 415.756 538.65 414.755 537.516C413.754 536.382 412.414 535.824 410.734 535.824C409.054 535.824 407.714 536.382 406.713 537.516C405.712 538.65 405.212 540.324 405.212 542.557C405.212 544.79 405.712 546.482 406.713 547.615C407.714 548.767 409.054 549.325 410.734 549.325Z" fill="#FAEDDD"/>
<path d="M435.236 552.273C433.324 552.273 431.68 551.889 430.286 551.104C428.892 550.319 427.802 549.203 427.051 547.755C426.282 546.307 425.907 544.58 425.907 542.574C425.907 540.568 426.282 538.841 427.051 537.376C427.819 535.928 428.892 534.812 430.286 534.027C431.68 533.242 433.342 532.858 435.236 532.858C437.131 532.858 438.793 533.242 440.205 534.027C441.617 534.812 442.707 535.928 443.475 537.376C444.244 538.824 444.637 540.551 444.637 542.574C444.637 544.598 444.244 546.307 443.475 547.755C442.707 549.203 441.617 550.319 440.205 551.104C438.811 551.872 437.149 552.273 435.236 552.273ZM435.236 549.325C436.916 549.325 438.239 548.749 439.24 547.615C440.24 546.482 440.723 544.79 440.723 542.557C440.723 540.324 440.223 538.65 439.24 537.516C438.257 536.382 436.916 535.824 435.236 535.824C433.592 535.824 432.27 536.382 431.269 537.516C430.286 538.65 429.785 540.324 429.785 542.557C429.785 544.79 430.268 546.482 431.251 547.615C432.234 548.767 433.556 549.325 435.236 549.325Z" fill="#FAEDDD"/>
<path d="M451.32 551.94V533.188H465.153V536.206H455.163V551.94H451.32Z" fill="#FAEDDD"/>
<path d="M470.729 559.965V537.69C470.729 536.975 470.693 536.242 470.639 535.475C470.568 534.725 470.514 533.957 470.425 533.19H474.16L474.535 537.429H474.124C474.535 536.016 475.357 534.899 476.591 534.079C477.824 533.26 479.289 532.858 480.987 532.858C482.685 532.858 484.168 533.242 485.455 534.027C486.724 534.812 487.707 535.911 488.404 537.359C489.101 538.807 489.458 540.533 489.458 542.574C489.458 544.58 489.101 546.325 488.404 547.79C487.707 549.255 486.724 550.372 485.455 551.139C484.186 551.907 482.703 552.29 480.987 552.29C479.307 552.29 477.86 551.889 476.626 551.087C475.393 550.284 474.571 549.185 474.16 547.79H474.589V560H470.729V559.965ZM480.022 549.325C481.702 549.325 483.042 548.749 484.043 547.615C485.044 546.482 485.545 544.79 485.545 542.557C485.545 540.324 485.044 538.65 484.043 537.516C483.042 536.382 481.702 535.824 480.022 535.824C478.342 535.824 477.002 536.382 476.001 537.516C475 538.65 474.5 540.324 474.5 542.557C474.5 544.79 475 546.482 476.001 547.615C477.002 548.767 478.342 549.325 480.022 549.325Z" fill="#FAEDDD"/>
<path d="M503.65 552.272C501.952 552.272 500.469 551.888 499.182 551.12C497.913 550.353 496.93 549.237 496.233 547.771C495.536 546.306 495.179 544.579 495.179 542.556C495.179 540.515 495.536 538.788 496.233 537.34C496.93 535.91 497.913 534.793 499.182 534.009C500.451 533.224 501.934 532.84 503.65 532.84C505.33 532.84 506.795 533.241 508.029 534.061C509.28 534.881 510.102 535.997 510.513 537.41H510.084L510.459 533.171H514.194C514.123 533.939 514.051 534.706 513.98 535.456C513.908 536.206 513.891 536.956 513.891 537.672V551.923H510.048V547.754H510.459C510.048 549.149 509.226 550.248 507.957 551.051C506.724 551.87 505.276 552.272 503.65 552.272ZM504.615 549.324C506.259 549.324 507.6 548.748 508.6 547.614C509.601 546.48 510.102 544.789 510.102 542.556C510.102 540.323 509.601 538.648 508.6 537.515C507.6 536.381 506.277 535.823 504.615 535.823C502.935 535.823 501.595 536.381 500.594 537.515C499.593 538.648 499.093 540.323 499.093 542.556C499.093 544.789 499.593 546.48 500.576 547.614C501.559 548.748 502.899 549.324 504.615 549.324Z" fill="#FAEDDD"/>
<path d="M521.718 551.94V533.188H524.917L531.851 545.172L538.785 533.188H541.985V551.94H538.589V537.392H539.429L532.763 548.922H530.94L524.273 537.392H525.113V551.94H521.718Z" fill="#FAEDDD"/>
<path d="M557.212 552.272C555.514 552.272 554.03 551.888 552.744 551.12C551.475 550.353 550.492 549.237 549.795 547.771C549.098 546.306 548.74 544.579 548.74 542.556C548.74 540.515 549.098 538.788 549.795 537.34C550.492 535.91 551.475 534.793 552.744 534.009C554.012 533.224 555.496 532.84 557.212 532.84C558.891 532.84 560.357 533.241 561.59 534.061C562.841 534.881 563.663 535.997 564.074 537.41H563.645L564.021 533.171H567.756C567.685 533.939 567.613 534.706 567.542 535.456C567.47 536.206 567.452 536.956 567.452 537.672V551.923H563.61V547.754H564.021C563.61 549.149 562.788 550.248 561.519 551.051C560.268 551.87 558.82 552.272 557.212 552.272ZM558.159 549.324C559.803 549.324 561.143 548.748 562.144 547.614C563.145 546.48 563.645 544.789 563.645 542.556C563.645 540.323 563.145 538.648 562.144 537.515C561.143 536.381 559.821 535.823 558.159 535.823C556.479 535.823 555.138 536.381 554.138 537.515C553.137 538.648 552.636 540.323 552.636 542.556C552.636 544.789 553.137 546.48 554.12 547.614C555.103 548.748 556.461 549.324 558.159 549.324Z" fill="#FAEDDD"/>
</svg>
