<svg width="605" height="561" viewBox="0 0 605 561" fill="none" xmlns="http://www.w3.org/2000/svg">
<path d="M386.841 518.622V499.874H397.409V495.64H400.685V502.896H390.658V518.64H386.841V518.622Z" fill="#FAEDDD"/>
<path d="M406.229 526.67V504.391C406.229 503.67 406.193 502.932 406.139 502.177C406.067 501.421 406.013 500.666 405.923 499.892H409.667L410.045 504.127H409.631C410.045 502.721 410.856 501.597 412.08 500.789C413.304 499.963 414.78 499.559 416.49 499.559C418.183 499.559 419.677 499.945 420.955 500.736C422.233 501.509 423.205 502.633 423.907 504.074C424.609 505.515 424.951 507.255 424.951 509.275C424.951 511.278 424.609 513.018 423.907 514.476C423.205 515.935 422.233 517.059 420.955 517.832C419.677 518.605 418.201 518.992 416.49 518.992C414.816 518.992 413.358 518.588 412.116 517.78C410.892 516.971 410.063 515.882 409.667 514.494H410.081V526.688H406.229V526.67ZM415.536 516.022C417.21 516.022 418.543 515.46 419.551 514.318C420.559 513.176 421.063 511.489 421.063 509.258C421.063 507.026 420.559 505.339 419.551 504.215C418.543 503.09 417.21 502.528 415.536 502.528C413.862 502.528 412.512 503.09 411.522 504.215C410.514 505.339 410.009 507.026 410.009 509.258C410.009 511.489 410.514 513.176 411.522 514.318C412.512 515.46 413.862 516.022 415.536 516.022Z" fill="#FAEDDD"/>
<path d="M439.174 518.956C437.463 518.956 435.987 518.569 434.709 517.796C433.431 517.023 432.459 515.916 431.757 514.44C431.054 512.982 430.712 511.242 430.712 509.239C430.712 507.201 431.054 505.461 431.757 504.038C432.459 502.597 433.431 501.49 434.709 500.7C435.987 499.927 437.463 499.522 439.174 499.522C440.848 499.522 442.306 499.927 443.548 500.752C444.79 501.578 445.618 502.685 446.033 504.091H445.618L445.996 499.856H449.741C449.669 500.629 449.597 501.385 449.525 502.141C449.453 502.896 449.435 503.634 449.435 504.354V518.604H445.582V514.44H445.996C445.582 515.828 444.754 516.935 443.494 517.726C442.234 518.552 440.794 518.956 439.174 518.956ZM440.128 516.021C441.784 516.021 443.098 515.459 444.106 514.317C445.114 513.175 445.618 511.488 445.618 509.257C445.618 507.025 445.114 505.338 444.106 504.214C443.098 503.089 441.766 502.527 440.128 502.527C438.453 502.527 437.103 503.089 436.113 504.214C435.105 505.338 434.601 507.025 434.601 509.257C434.601 511.488 435.087 513.175 436.077 514.317C437.067 515.459 438.417 516.021 440.128 516.021Z" fill="#FAEDDD"/>
<path d="M457.23 518.623V499.875H461.046V507.501H470.768V499.875H474.584V518.623H470.768V510.435H461.046V518.623H457.23Z" fill="#FAEDDD"/>
<path d="M486.394 518.623V502.88H479.607V499.875H497.034V502.88H490.211V518.623H486.394Z" fill="#FAEDDD"/>
<path d="M510.283 518.956C508.375 518.956 506.719 518.569 505.333 517.779C503.928 517.005 502.848 515.881 502.092 514.423C501.336 512.964 500.958 511.242 500.958 509.239C500.958 507.236 501.336 505.497 502.092 504.056C502.848 502.615 503.928 501.49 505.333 500.7C506.737 499.927 508.375 499.522 510.283 499.522C512.192 499.522 513.848 499.909 515.252 500.7C516.656 501.473 517.754 502.597 518.528 504.056C519.303 505.514 519.699 507.236 519.699 509.239C519.699 511.242 519.303 512.982 518.528 514.423C517.754 515.863 516.656 516.988 515.252 517.779C513.848 518.569 512.192 518.956 510.283 518.956ZM510.283 516.021C511.957 516.021 513.29 515.459 514.28 514.317C515.27 513.175 515.774 511.488 515.774 509.257C515.774 507.025 515.27 505.338 514.28 504.214C513.29 503.089 511.957 502.527 510.283 502.527C508.627 502.527 507.313 503.089 506.323 504.214C505.333 505.338 504.846 507.025 504.846 509.257C504.846 511.488 505.333 513.175 506.305 514.317C507.277 515.459 508.609 516.021 510.283 516.021Z" fill="#FAEDDD"/>
<path d="M526.377 518.623V499.875H536.063C538.367 499.875 540.095 500.297 541.193 501.158C542.292 502.019 542.85 503.231 542.85 504.795C542.85 506.007 542.436 507.009 541.607 507.799C540.779 508.59 539.699 509.082 538.349 509.258V508.766C539.951 508.836 541.211 509.293 542.112 510.136C543.03 510.98 543.48 512.069 543.48 513.405C543.48 515.021 542.868 516.286 541.625 517.217C540.401 518.149 538.655 518.606 536.387 518.606H526.377V518.623ZM529.996 507.887H535.685C536.819 507.887 537.719 507.641 538.349 507.149C538.979 506.657 539.303 505.972 539.303 505.111C539.303 504.215 538.979 503.53 538.349 503.038C537.719 502.546 536.819 502.317 535.685 502.317H529.996V507.887ZM529.996 516.216H536.099C537.341 516.216 538.295 515.97 538.961 515.46C539.627 514.951 539.951 514.213 539.951 513.246C539.951 512.28 539.627 511.542 538.961 511.05C538.295 510.558 537.341 510.312 536.099 510.312H529.996V516.216Z" fill="#FAEDDD"/>
<path d="M557.431 518.956C555.721 518.956 554.245 518.569 552.967 517.796C551.689 517.023 550.716 515.916 550.014 514.44C549.312 512.982 548.97 511.242 548.97 509.239C548.97 507.201 549.312 505.461 550.014 504.038C550.716 502.597 551.689 501.49 552.967 500.7C554.245 499.927 555.721 499.522 557.431 499.522C559.106 499.522 560.564 499.927 561.806 500.752C563.048 501.578 563.876 502.685 564.29 504.091H563.876L564.254 499.856H567.999C567.927 500.629 567.855 501.385 567.783 502.141C567.711 502.896 567.693 503.634 567.693 504.354V518.604H563.84V514.44H564.254C563.84 515.828 563.012 516.935 561.752 517.726C560.51 518.552 559.052 518.956 557.431 518.956ZM558.385 516.021C560.042 516.021 561.356 515.459 562.364 514.317C563.372 513.175 563.876 511.488 563.876 509.257C563.876 507.025 563.372 505.338 562.364 504.214C561.356 503.089 560.024 502.527 558.385 502.527C556.711 502.527 555.361 503.089 554.353 504.214C553.345 505.338 552.841 507.025 552.841 509.257C552.841 511.488 553.345 513.175 554.335 514.317C555.343 515.459 556.693 516.021 558.385 516.021Z" fill="#FAEDDD"/>
<path d="M376.58 552.111V533.363H393.808V552.111H389.991V536.298H380.378V552.111H376.58Z" fill="#FAEDDD"/>
<path d="M401.657 560.143V537.863C401.657 537.143 401.621 536.405 401.567 535.649C401.495 534.894 401.441 534.138 401.351 533.365H405.095L405.473 537.6H405.059C405.473 536.194 406.283 535.069 407.507 534.261C408.732 533.435 410.208 533.031 411.918 533.031C413.61 533.031 415.104 533.418 416.383 534.209C417.661 534.982 418.633 536.106 419.335 537.547C420.037 538.988 420.379 540.727 420.379 542.748C420.379 544.751 420.037 546.49 419.335 547.949C418.633 549.407 417.661 550.532 416.383 551.305C415.104 552.078 413.628 552.465 411.918 552.465C410.244 552.465 408.786 552.06 407.543 551.252C406.319 550.444 405.491 549.355 405.095 547.966H405.509V560.161H401.657V560.143ZM410.964 549.513C412.638 549.513 413.97 548.95 414.978 547.808C415.987 546.666 416.491 544.979 416.491 542.748C416.491 540.516 415.987 538.83 414.978 537.705C413.97 536.581 412.638 536.018 410.964 536.018C409.29 536.018 407.939 536.581 406.931 537.705C405.923 538.83 405.419 540.516 405.419 542.748C405.419 544.979 405.923 546.666 406.931 547.808C407.939 548.933 409.29 549.513 410.964 549.513Z" fill="#FAEDDD"/>
<path d="M435.466 552.445C433.558 552.445 431.901 552.058 430.515 551.268C429.111 550.495 428.031 549.37 427.275 547.912C426.519 546.471 426.141 544.731 426.141 542.728C426.141 540.725 426.519 538.986 427.275 537.545C428.031 536.104 429.111 534.98 430.515 534.189C431.919 533.416 433.558 533.012 435.466 533.012C437.374 533.012 439.03 533.398 440.435 534.189C441.839 534.962 442.937 536.087 443.711 537.545C444.485 539.003 444.881 540.725 444.881 542.728C444.881 544.731 444.485 546.471 443.711 547.912C442.937 549.353 441.839 550.477 440.435 551.268C439.03 552.058 437.374 552.445 435.466 552.445ZM435.466 549.511C437.14 549.511 438.472 548.949 439.462 547.806C440.453 546.664 440.957 544.978 440.957 542.746C440.957 540.515 440.453 538.828 439.462 537.703C438.472 536.579 437.14 536.016 435.466 536.016C433.81 536.016 432.495 536.579 431.505 537.703C430.515 538.828 430.029 540.515 430.029 542.746C430.029 544.978 430.515 546.664 431.487 547.806C432.459 548.931 433.792 549.511 435.466 549.511Z" fill="#FAEDDD"/>
<path d="M451.56 552.111V533.363H465.403V536.368H455.412V552.111H451.56Z" fill="#FAEDDD"/>
<path d="M470.948 560.143V537.863C470.948 537.143 470.912 536.405 470.858 535.649C470.786 534.894 470.732 534.138 470.642 533.365H474.387L474.765 537.6H474.351C474.765 536.194 475.575 535.069 476.799 534.261C478.023 533.435 479.499 533.031 481.21 533.031C482.902 533.031 484.396 533.418 485.674 534.209C486.952 534.982 487.924 536.106 488.627 537.547C489.329 538.988 489.671 540.727 489.671 542.748C489.671 544.751 489.329 546.49 488.627 547.949C487.924 549.407 486.952 550.532 485.674 551.305C484.396 552.078 482.92 552.465 481.21 552.465C479.535 552.465 478.077 552.06 476.835 551.252C475.611 550.444 474.783 549.355 474.387 547.966H474.801V560.161H470.948V560.143ZM480.255 549.513C481.93 549.513 483.262 548.95 484.27 547.808C485.278 546.666 485.782 544.979 485.782 542.748C485.782 540.516 485.278 538.83 484.27 537.705C483.262 536.581 481.93 536.018 480.255 536.018C478.581 536.018 477.231 536.581 476.223 537.705C475.215 538.83 474.711 540.516 474.711 542.748C474.711 544.979 475.215 546.666 476.223 547.808C477.231 548.933 478.581 549.513 480.255 549.513Z" fill="#FAEDDD"/>
<path d="M503.893 552.445C502.183 552.445 500.706 552.059 499.428 551.285C498.15 550.512 497.178 549.405 496.476 547.929C495.774 546.471 495.432 544.731 495.432 542.728C495.432 540.69 495.774 538.951 496.476 537.527C497.178 536.087 498.15 534.98 499.428 534.189C500.706 533.416 502.183 533.012 503.893 533.012C505.567 533.012 507.025 533.416 508.267 534.242C509.51 535.068 510.338 536.175 510.752 537.58H510.338L510.716 533.346H514.46C514.388 534.119 514.316 534.874 514.244 535.63C514.172 536.385 514.154 537.123 514.154 537.844V552.094H510.302V547.929H510.716C510.302 549.318 509.474 550.424 508.213 551.215C506.953 552.041 505.513 552.445 503.893 552.445ZM504.847 549.511C506.503 549.511 507.817 548.949 508.825 547.806C509.834 546.664 510.338 544.978 510.338 542.746C510.338 540.515 509.834 538.828 508.825 537.703C507.817 536.579 506.485 536.016 504.847 536.016C503.173 536.016 501.822 536.579 500.814 537.703C499.806 538.828 499.302 540.515 499.302 542.746C499.302 544.978 499.788 546.664 500.778 547.806C501.786 548.931 503.137 549.511 504.847 549.511Z" fill="#FAEDDD"/>
<path d="M521.949 552.111V533.363H525.154L532.085 545.347L539.016 533.363H542.22V552.111H538.836V537.563H539.682L533.003 549.089H531.166L524.488 537.563H525.334V552.111H521.949Z" fill="#FAEDDD"/>
<path d="M557.431 552.445C555.721 552.445 554.245 552.059 552.967 551.285C551.689 550.512 550.716 549.405 550.014 547.929C549.312 546.471 548.97 544.731 548.97 542.728C548.97 540.69 549.312 538.951 550.014 537.527C550.716 536.087 551.689 534.98 552.967 534.189C554.245 533.416 555.721 533.012 557.431 533.012C559.106 533.012 560.564 533.416 561.806 534.242C563.048 535.068 563.876 536.175 564.29 537.58H563.876L564.254 533.346H567.999C567.927 534.119 567.855 534.874 567.783 535.63C567.711 536.385 567.693 537.123 567.693 537.844V552.094H563.84V547.929H564.254C563.84 549.318 563.012 550.424 561.752 551.215C560.51 552.041 559.052 552.445 557.431 552.445ZM558.385 549.511C560.042 549.511 561.356 548.949 562.364 547.806C563.372 546.664 563.876 544.978 563.876 542.746C563.876 540.515 563.372 538.828 562.364 537.703C561.356 536.579 560.024 536.016 558.385 536.016C556.711 536.016 555.361 536.579 554.353 537.703C553.345 538.828 552.841 540.515 552.841 542.746C552.841 544.978 553.345 546.664 554.335 547.806C555.343 548.931 556.693 549.511 558.385 549.511Z" fill="#FAEDDD"/>
<path d="M353.086 271.734C345.038 262.105 335.785 254.585 325.362 249.156C314.92 243.744 303.597 241.021 291.337 241.021C279.312 241.021 268.654 243.726 259.365 249.156C250.058 254.585 242.749 262.105 237.42 271.734C232.091 281.363 229.427 292.485 229.427 305.101C229.427 317.717 232.091 328.839 237.42 338.468C242.749 348.097 250.058 355.617 259.365 361.047C268.654 366.476 279.312 369.182 291.337 369.182C303.579 369.182 314.92 366.476 325.362 361.047C335.785 355.635 345.038 348.097 353.086 338.468C361.133 328.839 367.541 317.717 372.294 305.101C367.541 292.485 361.133 281.363 353.086 271.734Z" fill="#FAEDDD"/>
<path d="M96.5693 0.160156L81.9693 77.5596L15.3783 430.768L13.6321 440.063L7.31318 473.57L0.220215 511.172L570.502 441.89L604.22 263.037L96.5693 0.160156ZM419.911 399.053H374.329L369.324 352.455C368.406 353.948 367.488 355.442 366.498 356.883C356.507 371.712 344.211 383.221 329.593 391.409C314.957 399.597 298.701 403.691 280.788 403.691C261.958 403.691 245.305 399.544 230.778 391.234C216.268 382.94 204.926 371.379 196.771 356.549C188.616 341.719 184.529 324.57 184.529 305.084C184.529 285.387 188.616 268.185 196.771 253.461C204.944 238.754 216.268 227.228 230.778 218.934C245.287 210.641 261.958 206.477 280.788 206.477C298.701 206.477 314.975 210.571 329.593 218.759C344.211 226.947 356.579 238.403 366.66 253.109C367.596 254.48 368.496 255.903 369.378 257.309L374.311 211.098H419.893L409.686 305.049L419.911 399.053Z" fill="#FAEDDD"/>
</svg>
