<svg width="604" height="560" viewBox="0 0 604 560" fill="none" xmlns="http://www.w3.org/2000/svg">
<path d="M266.167 307.02C243.201 321.079 234.623 332.487 234.623 345.413C234.623 359.838 245.149 369.345 260.733 369.345C285.254 369.345 310.972 354.134 330.827 329.068L303.555 274.349C296.156 285.355 284.092 295.996 266.167 307.02Z" fill="#FAEDDD"/>
<path d="M96.3476 0L81.7463 77.3958L15.1554 430.605L13.404 439.902L7.09516 473.411L0 511.018L570.276 441.734L604 262.888L96.3476 0ZM365.463 398.614L345.608 358.337C322.249 384.171 287.577 402.399 257.624 402.399C220.629 402.399 195.716 380.368 195.716 347.679C195.716 324.515 211.675 303.984 243.988 285.372C268.133 271.313 282.162 258.004 288.382 243.561L270.849 208.604H310.579L408.302 398.631H365.463V398.614Z" fill="#FAEDDD"/>
<path d="M386.606 518.449V499.698H397.168V495.459H400.439V502.715H390.413V518.449H386.606Z" fill="#FAEDDD"/>
<path d="M405.997 526.491V504.216C405.997 503.5 405.961 502.768 405.907 502C405.836 501.25 405.782 500.483 405.693 499.715H409.428L409.803 503.954H409.392C409.803 502.541 410.625 501.425 411.859 500.605C413.092 499.785 414.557 499.384 416.255 499.384C417.953 499.384 419.436 499.768 420.723 500.552C421.992 501.337 422.975 502.436 423.672 503.884C424.369 505.332 424.726 507.059 424.726 509.1C424.726 511.106 424.369 512.85 423.672 514.315C422.975 515.78 421.992 516.897 420.723 517.664C419.454 518.432 417.971 518.816 416.255 518.816C414.575 518.816 413.128 518.414 411.894 517.612C410.661 516.81 409.839 515.711 409.428 514.315H409.857V526.526H405.997V526.491ZM415.308 515.85C416.988 515.85 418.328 515.275 419.329 514.141C420.33 513.007 420.83 511.315 420.83 509.082C420.83 506.85 420.33 505.175 419.329 504.041C418.328 502.907 416.988 502.349 415.308 502.349C413.628 502.349 412.288 502.907 411.287 504.041C410.286 505.175 409.786 506.85 409.786 509.082C409.786 511.315 410.286 513.007 411.287 514.141C412.288 515.275 413.628 515.85 415.308 515.85Z" fill="#FAEDDD"/>
<path d="M438.935 518.799C437.237 518.799 435.754 518.415 434.467 517.648C433.198 516.88 432.215 515.764 431.518 514.299C430.821 512.833 430.464 511.107 430.464 509.083C430.464 507.042 430.821 505.315 431.518 503.867C432.215 502.437 433.198 501.321 434.467 500.536C435.736 499.751 437.219 499.367 438.935 499.367C440.615 499.367 442.081 499.768 443.314 500.588C444.565 501.408 445.387 502.524 445.798 503.937H445.369L445.744 499.699H449.48C449.408 500.466 449.337 501.234 449.265 501.984C449.194 502.734 449.176 503.484 449.176 504.199V518.45H445.333V514.281H445.744C445.333 515.677 444.511 516.776 443.242 517.578C442.009 518.38 440.561 518.799 438.935 518.799ZM439.882 515.851C441.527 515.851 442.867 515.275 443.868 514.142C444.869 513.008 445.369 511.316 445.369 509.083C445.369 506.85 444.869 505.176 443.868 504.042C442.867 502.908 441.545 502.35 439.882 502.35C438.202 502.35 436.862 502.908 435.861 504.042C434.86 505.176 434.36 506.85 434.36 509.083C434.36 511.316 434.86 513.008 435.843 514.142C436.826 515.275 438.185 515.851 439.882 515.851Z" fill="#FAEDDD"/>
<path d="M457.003 518.449V499.697H460.81V507.32H470.532V499.697H474.339V518.449H470.532V510.268H460.81V518.449H457.003Z" fill="#FAEDDD"/>
<path d="M486.153 518.449V502.715H479.361V499.697H496.786V502.715H489.959V518.449H486.153Z" fill="#FAEDDD"/>
<path d="M510.047 518.798C508.135 518.798 506.49 518.414 505.096 517.629C503.702 516.844 502.612 515.728 501.862 514.28C501.093 512.833 500.718 511.106 500.718 509.1C500.718 507.094 501.093 505.367 501.862 503.902C502.63 502.454 503.702 501.337 505.096 500.552C506.49 499.768 508.152 499.384 510.047 499.384C511.941 499.384 513.603 499.768 515.015 500.552C516.427 501.337 517.517 502.454 518.286 503.902C519.054 505.349 519.448 507.076 519.448 509.1C519.448 511.123 519.054 512.833 518.286 514.28C517.517 515.728 516.427 516.844 515.015 517.629C513.621 518.397 511.959 518.798 510.047 518.798ZM510.047 515.85C511.727 515.85 513.049 515.275 514.05 514.141C515.051 513.007 515.534 511.315 515.534 509.082C515.534 506.85 515.033 505.175 514.05 504.041C513.067 502.907 511.727 502.349 510.047 502.349C508.403 502.349 507.08 502.907 506.079 504.041C505.096 505.175 504.596 506.85 504.596 509.082C504.596 511.315 505.079 513.007 506.061 514.141C507.044 515.275 508.385 515.85 510.047 515.85Z" fill="#FAEDDD"/>
<path d="M526.132 518.449V499.697H535.819C538.124 499.697 539.84 500.133 540.948 500.988C542.056 501.843 542.61 503.046 542.61 504.616C542.61 505.837 542.199 506.832 541.377 507.634C540.555 508.436 539.464 508.907 538.124 509.082V508.593C539.732 508.663 540.983 509.134 541.895 509.971C542.806 510.809 543.271 511.907 543.271 513.251C543.271 514.855 542.663 516.129 541.43 517.071C540.197 518.013 538.446 518.466 536.194 518.466H526.132V518.449ZM529.76 507.704H535.443C536.587 507.704 537.481 507.459 538.106 506.954C538.732 506.448 539.053 505.785 539.053 504.913C539.053 504.023 538.732 503.325 538.106 502.854C537.481 502.384 536.587 502.122 535.443 502.122H529.76V507.704ZM529.76 516.042H535.854C537.105 516.042 538.052 515.78 538.714 515.274C539.375 514.768 539.697 514.036 539.697 513.059C539.697 512.099 539.375 511.367 538.714 510.861C538.052 510.355 537.105 510.111 535.854 510.111H529.76V516.042Z" fill="#FAEDDD"/>
<path d="M557.211 518.799C555.513 518.799 554.03 518.415 552.743 517.648C551.474 516.88 550.491 515.764 549.794 514.299C549.097 512.833 548.74 511.107 548.74 509.083C548.74 507.042 549.097 505.315 549.794 503.867C550.491 502.437 551.474 501.321 552.743 500.536C554.012 499.751 555.495 499.367 557.211 499.367C558.891 499.367 560.357 499.768 561.59 500.588C562.841 501.408 563.663 502.524 564.074 503.937H563.645L564.02 499.699H567.756C567.684 500.466 567.613 501.234 567.541 501.984C567.47 502.734 567.452 503.484 567.452 504.199V518.45H563.609V514.281H564.02C563.609 515.677 562.787 516.776 561.518 517.578C560.267 518.38 558.82 518.799 557.211 518.799ZM558.158 515.851C559.803 515.851 561.143 515.275 562.144 514.142C563.145 513.008 563.645 511.316 563.645 509.083C563.645 506.85 563.145 505.176 562.144 504.042C561.143 502.908 559.82 502.35 558.158 502.35C556.478 502.35 555.138 502.908 554.137 504.042C553.136 505.176 552.636 506.85 552.636 509.083C552.636 511.316 553.136 513.008 554.119 514.142C555.102 515.275 556.46 515.851 558.158 515.851Z" fill="#FAEDDD"/>
<path d="M376.347 551.94V533.188H393.576V551.94H389.769V536.136H380.154V551.94H376.347Z" fill="#FAEDDD"/>
<path d="M401.44 559.965V537.69C401.44 536.975 401.404 536.242 401.35 535.475C401.279 534.725 401.225 533.957 401.136 533.19H404.871L405.246 537.429H404.835C405.246 536.016 406.068 534.899 407.302 534.079C408.535 533.26 410 532.858 411.698 532.858C413.396 532.858 414.879 533.242 416.166 534.027C417.435 534.812 418.418 535.911 419.115 537.359C419.812 538.807 420.169 540.533 420.169 542.574C420.169 544.58 419.812 546.325 419.115 547.79C418.418 549.255 417.435 550.372 416.166 551.139C414.897 551.907 413.414 552.29 411.698 552.29C410.018 552.29 408.571 551.889 407.337 551.087C406.104 550.284 405.282 549.185 404.871 547.79H405.3V560H401.44V559.965ZM410.733 549.325C412.413 549.325 413.753 548.749 414.754 547.615C415.755 546.482 416.255 544.79 416.255 542.557C416.255 540.324 415.755 538.65 414.754 537.516C413.753 536.382 412.413 535.824 410.733 535.824C409.053 535.824 407.713 536.382 406.712 537.516C405.711 538.65 405.211 540.324 405.211 542.557C405.211 544.79 405.711 546.482 406.712 547.615C407.713 548.767 409.053 549.325 410.733 549.325Z" fill="#FAEDDD"/>
<path d="M435.235 552.273C433.323 552.273 431.679 551.889 430.285 551.104C428.891 550.319 427.801 549.203 427.05 547.755C426.281 546.307 425.906 544.58 425.906 542.574C425.906 540.568 426.281 538.841 427.05 537.376C427.818 535.928 428.891 534.812 430.285 534.027C431.679 533.242 433.341 532.858 435.235 532.858C437.13 532.858 438.792 533.242 440.204 534.027C441.616 534.812 442.706 535.928 443.474 537.376C444.243 538.824 444.636 540.551 444.636 542.574C444.636 544.598 444.243 546.307 443.474 547.755C442.706 549.203 441.616 550.319 440.204 551.104C438.81 551.872 437.148 552.273 435.235 552.273ZM435.235 549.325C436.915 549.325 438.238 548.749 439.239 547.615C440.239 546.482 440.722 544.79 440.722 542.557C440.722 540.324 440.222 538.65 439.239 537.516C438.256 536.382 436.915 535.824 435.235 535.824C433.591 535.824 432.269 536.382 431.268 537.516C430.285 538.65 429.784 540.324 429.784 542.557C429.784 544.79 430.267 546.482 431.25 547.615C432.233 548.767 433.555 549.325 435.235 549.325Z" fill="#FAEDDD"/>
<path d="M451.32 551.94V533.188H465.153V536.206H455.163V551.94H451.32Z" fill="#FAEDDD"/>
<path d="M470.729 559.965V537.69C470.729 536.975 470.693 536.242 470.64 535.475C470.568 534.725 470.515 533.957 470.425 533.19H474.161L474.536 537.429H474.125C474.536 536.016 475.358 534.899 476.591 534.079C477.824 533.26 479.29 532.858 480.988 532.858C482.686 532.858 484.169 533.242 485.456 534.027C486.725 534.812 487.707 535.911 488.404 537.359C489.101 538.807 489.459 540.533 489.459 542.574C489.459 544.58 489.101 546.325 488.404 547.79C487.707 549.255 486.725 550.372 485.456 551.139C484.187 551.907 482.703 552.29 480.988 552.29C479.308 552.29 477.86 551.889 476.627 551.087C475.394 550.284 474.572 549.185 474.161 547.79H474.589V560H470.729V559.965ZM480.023 549.325C481.702 549.325 483.043 548.749 484.044 547.615C485.045 546.482 485.545 544.79 485.545 542.557C485.545 540.324 485.045 538.65 484.044 537.516C483.043 536.382 481.702 535.824 480.023 535.824C478.343 535.824 477.002 536.382 476.001 537.516C475.001 538.65 474.5 540.324 474.5 542.557C474.5 544.79 475.001 546.482 476.001 547.615C477.002 548.767 478.343 549.325 480.023 549.325Z" fill="#FAEDDD"/>
<path d="M503.65 552.272C501.952 552.272 500.468 551.888 499.182 551.12C497.913 550.353 496.93 549.237 496.233 547.771C495.536 546.306 495.178 544.579 495.178 542.556C495.178 540.515 495.536 538.788 496.233 537.34C496.93 535.91 497.913 534.793 499.182 534.009C500.45 533.224 501.934 532.84 503.65 532.84C505.329 532.84 506.795 533.241 508.028 534.061C509.279 534.881 510.101 535.997 510.512 537.41H510.083L510.459 533.171H514.194C514.122 533.939 514.051 534.706 513.979 535.456C513.908 536.206 513.89 536.956 513.89 537.672V551.923H510.048V547.754H510.459C510.048 549.149 509.226 550.248 507.957 551.051C506.723 551.87 505.276 552.272 503.65 552.272ZM504.615 549.324C506.259 549.324 507.599 548.748 508.6 547.614C509.601 546.48 510.101 544.789 510.101 542.556C510.101 540.323 509.601 538.648 508.6 537.515C507.599 536.381 506.277 535.823 504.615 535.823C502.935 535.823 501.594 536.381 500.593 537.515C499.593 538.648 499.092 540.323 499.092 542.556C499.092 544.789 499.593 546.48 500.575 547.614C501.558 548.748 502.899 549.324 504.615 549.324Z" fill="#FAEDDD"/>
<path d="M521.717 551.94V533.188H524.916L531.851 545.172L538.785 533.188H541.984V551.94H538.588V537.392H539.428L532.762 548.922H530.939L524.273 537.392H525.113V551.94H521.717Z" fill="#FAEDDD"/>
<path d="M557.211 552.272C555.513 552.272 554.03 551.888 552.743 551.12C551.474 550.353 550.491 549.237 549.794 547.771C549.097 546.306 548.74 544.579 548.74 542.556C548.74 540.515 549.097 538.788 549.794 537.34C550.491 535.91 551.474 534.793 552.743 534.009C554.012 533.224 555.495 532.84 557.211 532.84C558.891 532.84 560.357 533.241 561.59 534.061C562.841 534.881 563.663 535.997 564.074 537.41H563.645L564.02 533.171H567.756C567.684 533.939 567.613 534.706 567.541 535.456C567.47 536.206 567.452 536.956 567.452 537.672V551.923H563.609V547.754H564.02C563.609 549.149 562.787 550.248 561.518 551.051C560.267 551.87 558.82 552.272 557.211 552.272ZM558.158 549.324C559.803 549.324 561.143 548.748 562.144 547.614C563.145 546.48 563.645 544.789 563.645 542.556C563.645 540.323 563.145 538.648 562.144 537.515C561.143 536.381 559.82 535.823 558.158 535.823C556.478 535.823 555.138 536.381 554.137 537.515C553.136 538.648 552.636 540.323 552.636 542.556C552.636 544.789 553.136 546.48 554.119 547.614C555.102 548.748 556.46 549.324 558.158 549.324Z" fill="#FAEDDD"/>
</svg>
