<svg width="604" height="560" viewBox="0 0 604 560" fill="none" xmlns="http://www.w3.org/2000/svg">
<path d="M386.621 518.462V499.714H397.189V495.479H400.465V502.736H390.438V518.48H386.621V518.462Z" fill="#FAEDDD"/>
<path d="M406.009 526.51V504.23C406.009 503.51 405.973 502.772 405.919 502.016C405.847 501.261 405.793 500.505 405.703 499.732H409.447L409.825 503.967H409.411C409.825 502.561 410.635 501.437 411.86 500.628C413.084 499.803 414.56 499.398 416.27 499.398C417.962 499.398 419.457 499.785 420.735 500.576C422.013 501.349 422.985 502.473 423.687 503.914C424.389 505.355 424.731 507.095 424.731 509.115C424.731 511.118 424.389 512.858 423.687 514.316C422.985 515.774 422.013 516.899 420.735 517.672C419.457 518.445 417.98 518.832 416.27 518.832C414.596 518.832 413.138 518.428 411.895 517.619C410.671 516.811 409.843 515.722 409.447 514.334H409.861V526.528H406.009V526.51ZM415.316 515.862C416.99 515.862 418.322 515.3 419.331 514.158C420.339 513.016 420.843 511.329 420.843 509.098C420.843 506.866 420.339 505.179 419.331 504.055C418.322 502.93 416.99 502.368 415.316 502.368C413.642 502.368 412.292 502.93 411.301 504.055C410.293 505.179 409.789 506.866 409.789 509.098C409.789 511.329 410.293 513.016 411.301 514.158C412.292 515.3 413.642 515.862 415.316 515.862Z" fill="#FAEDDD"/>
<path d="M438.953 518.796C437.243 518.796 435.767 518.409 434.489 517.636C433.211 516.863 432.238 515.756 431.536 514.28C430.834 512.822 430.492 511.082 430.492 509.079C430.492 507.041 430.834 505.301 431.536 503.878C432.238 502.437 433.211 501.33 434.489 500.54C435.767 499.767 437.243 499.362 438.953 499.362C440.628 499.362 442.086 499.766 443.328 500.592C444.57 501.418 445.398 502.525 445.812 503.931H445.398L445.776 499.696H449.521C449.449 500.469 449.377 501.225 449.305 501.98C449.233 502.736 449.215 503.474 449.215 504.194V518.444H445.362V514.28H445.776C445.362 515.668 444.534 516.775 443.274 517.566C442.014 518.392 440.574 518.796 438.953 518.796ZM439.907 515.861C441.564 515.861 442.878 515.299 443.886 514.157C444.894 513.015 445.398 511.328 445.398 509.097C445.398 506.865 444.894 505.178 443.886 504.054C442.878 502.929 441.546 502.367 439.907 502.367C438.233 502.367 436.883 502.929 435.893 504.054C434.885 505.178 434.381 506.865 434.381 509.097C434.381 511.328 434.867 513.015 435.857 514.157C436.847 515.299 438.197 515.861 439.907 515.861Z" fill="#FAEDDD"/>
<path d="M457.01 518.463V499.715H460.826V507.341H470.548V499.715H474.364V518.463H470.548V510.275H460.826V518.463H457.01Z" fill="#FAEDDD"/>
<path d="M486.174 518.463V502.719H479.387V499.715H496.814V502.719H489.991V518.463H486.174Z" fill="#FAEDDD"/>
<path d="M510.063 518.796C508.155 518.796 506.499 518.409 505.112 517.618C503.708 516.845 502.628 515.721 501.872 514.262C501.116 512.804 500.738 511.082 500.738 509.079C500.738 507.076 501.116 505.336 501.872 503.896C502.628 502.455 503.708 501.33 505.112 500.54C506.517 499.767 508.155 499.362 510.063 499.362C511.971 499.362 513.628 499.749 515.032 500.54C516.436 501.313 517.534 502.437 518.308 503.896C519.082 505.354 519.478 507.076 519.478 509.079C519.478 511.082 519.082 512.822 518.308 514.262C517.534 515.703 516.436 516.828 515.032 517.618C513.628 518.409 511.971 518.796 510.063 518.796ZM510.063 515.861C511.737 515.861 513.069 515.299 514.06 514.157C515.05 513.015 515.554 511.328 515.554 509.097C515.554 506.865 515.05 505.178 514.06 504.054C513.069 502.929 511.737 502.367 510.063 502.367C508.407 502.367 507.093 502.929 506.102 504.054C505.112 505.178 504.626 506.865 504.626 509.097C504.626 511.328 505.112 513.015 506.084 514.157C507.057 515.299 508.389 515.861 510.063 515.861Z" fill="#FAEDDD"/>
<path d="M526.157 518.463V499.715H535.843C538.147 499.715 539.875 500.137 540.973 500.998C542.071 501.859 542.629 503.071 542.629 504.635C542.629 505.847 542.215 506.849 541.387 507.639C540.559 508.43 539.479 508.922 538.129 509.098V508.606C539.731 508.676 540.991 509.133 541.891 509.976C542.809 510.82 543.26 511.909 543.26 513.244C543.26 514.861 542.647 516.126 541.405 517.057C540.181 517.988 538.435 518.445 536.167 518.445H526.157V518.463ZM529.776 507.727H535.464C536.599 507.727 537.499 507.481 538.129 506.989C538.759 506.497 539.083 505.812 539.083 504.951C539.083 504.055 538.759 503.37 538.129 502.878C537.499 502.386 536.599 502.157 535.464 502.157H529.776V507.727ZM529.776 516.056H535.878C537.121 516.056 538.075 515.81 538.741 515.3C539.407 514.791 539.731 514.053 539.731 513.086C539.731 512.12 539.407 511.382 538.741 510.89C538.075 510.398 537.121 510.152 535.878 510.152H529.776V516.056Z" fill="#FAEDDD"/>
<path d="M557.211 518.796C555.501 518.796 554.025 518.409 552.747 517.636C551.468 516.863 550.496 515.756 549.794 514.28C549.092 512.822 548.75 511.082 548.75 509.079C548.75 507.041 549.092 505.301 549.794 503.878C550.496 502.437 551.468 501.33 552.747 500.54C554.025 499.767 555.501 499.362 557.211 499.362C558.885 499.362 560.344 499.766 561.586 500.592C562.828 501.418 563.656 502.525 564.07 503.931H563.656L564.034 499.696H567.779C567.707 500.469 567.635 501.225 567.563 501.98C567.491 502.736 567.473 503.474 567.473 504.194V518.444H563.62V514.28H564.034C563.62 515.668 562.792 516.775 561.532 517.566C560.29 518.392 558.831 518.796 557.211 518.796ZM558.165 515.861C559.821 515.861 561.136 515.299 562.144 514.157C563.152 513.015 563.656 511.328 563.656 509.097C563.656 506.865 563.152 505.178 562.144 504.054C561.136 502.929 559.803 502.367 558.165 502.367C556.491 502.367 555.141 502.929 554.133 504.054C553.125 505.178 552.621 506.865 552.621 509.097C552.621 511.328 553.125 513.015 554.115 514.157C555.123 515.299 556.473 515.861 558.165 515.861Z" fill="#FAEDDD"/>
<path d="M376.359 551.951V533.203H393.588V551.951H389.771V536.138H380.158V551.951H376.359Z" fill="#FAEDDD"/>
<path d="M401.436 559.983V537.703C401.436 536.983 401.4 536.245 401.346 535.489C401.274 534.734 401.22 533.978 401.13 533.205H404.875L405.253 537.44H404.839C405.253 536.034 406.063 534.909 407.287 534.101C408.511 533.275 409.988 532.871 411.698 532.871C413.39 532.871 414.884 533.258 416.162 534.048C417.441 534.822 418.413 535.946 419.115 537.387C419.817 538.828 420.159 540.567 420.159 542.588C420.159 544.591 419.817 546.33 419.115 547.789C418.413 549.247 417.441 550.372 416.162 551.145C414.884 551.918 413.408 552.304 411.698 552.304C410.024 552.304 408.565 551.9 407.323 551.092C406.099 550.284 405.271 549.194 404.875 547.806H405.289V560H401.436V559.983ZM410.744 549.353C412.418 549.353 413.75 548.79 414.758 547.648C415.766 546.506 416.27 544.819 416.27 542.588C416.27 540.356 415.766 538.67 414.758 537.545C413.75 536.42 412.418 535.858 410.744 535.858C409.069 535.858 407.719 536.42 406.711 537.545C405.703 538.67 405.199 540.356 405.199 542.588C405.199 544.819 405.703 546.506 406.711 547.648C407.719 548.773 409.069 549.353 410.744 549.353Z" fill="#FAEDDD"/>
<path d="M435.246 552.285C433.337 552.285 431.681 551.898 430.295 551.108C428.891 550.335 427.811 549.21 427.055 547.752C426.298 546.311 425.92 544.571 425.92 542.568C425.92 540.565 426.298 538.826 427.055 537.385C427.811 535.944 428.891 534.82 430.295 534.029C431.699 533.256 433.337 532.852 435.246 532.852C437.154 532.852 438.81 533.238 440.214 534.029C441.619 534.802 442.717 535.926 443.491 537.385C444.265 538.843 444.661 540.565 444.661 542.568C444.661 544.571 444.265 546.311 443.491 547.752C442.717 549.192 441.619 550.317 440.214 551.108C438.81 551.898 437.154 552.285 435.246 552.285ZM435.246 549.351C436.92 549.351 438.252 548.788 439.242 547.646C440.232 546.504 440.736 544.817 440.736 542.586C440.736 540.354 440.232 538.668 439.242 537.543C438.252 536.419 436.92 535.856 435.246 535.856C433.589 535.856 432.275 536.419 431.285 537.543C430.295 538.668 429.809 540.354 429.809 542.586C429.809 544.817 430.295 546.504 431.267 547.646C432.239 548.771 433.571 549.351 435.246 549.351Z" fill="#FAEDDD"/>
<path d="M451.339 551.951V533.203H465.183V536.208H455.192V551.951H451.339Z" fill="#FAEDDD"/>
<path d="M470.728 559.983V537.703C470.728 536.983 470.692 536.245 470.638 535.489C470.566 534.734 470.512 533.978 470.422 533.205H474.166L474.545 537.44H474.13C474.544 536.034 475.355 534.909 476.579 534.101C477.803 533.275 479.279 532.871 480.989 532.871C482.682 532.871 484.176 533.258 485.454 534.048C486.732 534.822 487.704 535.946 488.406 537.387C489.108 538.828 489.45 540.567 489.45 542.588C489.45 544.591 489.108 546.33 488.406 547.789C487.704 549.247 486.732 550.372 485.454 551.145C484.176 551.918 482.7 552.304 480.989 552.304C479.315 552.304 477.857 551.9 476.615 551.092C475.391 550.284 474.562 549.194 474.166 547.806H474.58V560H470.728V559.983ZM480.035 549.353C481.709 549.353 483.042 548.79 484.05 547.648C485.058 546.506 485.562 544.819 485.562 542.588C485.562 540.356 485.058 538.67 484.05 537.545C483.042 536.42 481.709 535.858 480.035 535.858C478.361 535.858 477.011 536.42 476.003 537.545C474.995 538.67 474.49 540.356 474.49 542.588C474.49 544.819 474.995 546.506 476.003 547.648C477.011 548.773 478.361 549.353 480.035 549.353Z" fill="#FAEDDD"/>
<path d="M503.673 552.285C501.962 552.285 500.486 551.898 499.208 551.125C497.93 550.352 496.958 549.245 496.256 547.769C495.554 546.311 495.211 544.571 495.211 542.568C495.211 540.53 495.554 538.791 496.256 537.367C496.958 535.926 497.93 534.82 499.208 534.029C500.486 533.256 501.962 532.852 503.673 532.852C505.347 532.852 506.805 533.256 508.047 534.082C509.289 534.907 510.117 536.014 510.532 537.42H510.117L510.495 533.185H514.24C514.168 533.959 514.096 534.714 514.024 535.47C513.952 536.225 513.934 536.963 513.934 537.684V551.934H510.081V547.769H510.495C510.081 549.157 509.253 550.264 507.993 551.055C506.733 551.881 505.293 552.285 503.673 552.285ZM504.627 549.351C506.283 549.351 507.597 548.788 508.605 547.646C509.613 546.504 510.117 544.817 510.117 542.586C510.117 540.354 509.613 538.668 508.605 537.543C507.597 536.419 506.265 535.856 504.627 535.856C502.952 535.856 501.602 536.419 500.594 537.543C499.586 538.668 499.082 540.354 499.082 542.586C499.082 544.817 499.568 546.504 500.558 547.646C501.566 548.771 502.916 549.351 504.627 549.351Z" fill="#FAEDDD"/>
<path d="M521.729 551.951V533.203H524.933L531.864 545.186L538.795 533.203H542V551.951H538.615V537.403H539.461L532.783 548.929H530.946L524.267 537.403H525.113V551.951H521.729Z" fill="#FAEDDD"/>
<path d="M557.211 552.285C555.501 552.285 554.025 551.898 552.747 551.125C551.468 550.352 550.496 549.245 549.794 547.769C549.092 546.311 548.75 544.571 548.75 542.568C548.75 540.53 549.092 538.791 549.794 537.367C550.496 535.926 551.468 534.82 552.747 534.029C554.025 533.256 555.501 532.852 557.211 532.852C558.885 532.852 560.344 533.256 561.586 534.082C562.828 534.907 563.656 536.014 564.07 537.42H563.656L564.034 533.185H567.779C567.707 533.959 567.635 534.714 567.563 535.47C567.491 536.225 567.473 536.963 567.473 537.684V551.934H563.62V547.769H564.034C563.62 549.157 562.792 550.264 561.532 551.055C560.29 551.881 558.831 552.285 557.211 552.285ZM558.165 549.351C559.821 549.351 561.136 548.788 562.144 547.646C563.152 546.504 563.656 544.817 563.656 542.586C563.656 540.354 563.152 538.668 562.144 537.543C561.136 536.419 559.803 535.856 558.165 535.856C556.491 535.856 555.141 536.419 554.133 537.543C553.125 538.668 552.621 540.354 552.621 542.586C552.621 544.817 553.125 546.504 554.115 547.646C555.123 548.771 556.473 549.351 558.165 549.351Z" fill="#FAEDDD"/>
<path d="M352.865 271.574C344.818 261.945 335.565 254.425 325.142 248.996C314.7 243.584 303.377 240.86 291.117 240.86C279.091 240.86 268.434 243.566 259.145 248.996C249.837 254.425 242.528 261.945 237.2 271.574C231.871 281.203 229.207 292.325 229.207 304.941C229.207 317.557 231.871 328.679 237.2 338.308C242.528 347.937 249.837 355.457 259.145 360.886C268.434 366.316 279.091 369.022 291.117 369.022C303.359 369.022 314.7 366.316 325.142 360.886C335.565 355.475 344.818 347.937 352.865 338.308C360.912 328.679 367.321 317.557 372.074 304.941C367.321 292.325 360.912 281.203 352.865 271.574Z" fill="#FAEDDD"/>
<path d="M96.3491 0L81.7491 77.3994L15.1581 430.608L13.4118 439.903L7.09297 473.41L0 511.012L570.281 441.73L604 262.877L96.3491 0ZM419.691 398.892H374.109L369.104 352.295C368.186 353.788 367.268 355.282 366.278 356.722C356.286 371.552 343.991 383.061 329.373 391.249C314.737 399.437 298.481 403.531 280.568 403.531C261.738 403.531 245.085 399.384 230.557 391.073C216.047 382.78 204.706 371.218 196.551 356.389C188.396 341.559 184.309 324.41 184.309 304.924C184.309 285.227 188.396 268.025 196.551 253.301C204.724 238.594 216.047 227.068 230.557 218.774C245.067 210.481 261.738 206.316 280.568 206.316C298.481 206.316 314.755 210.41 329.373 218.598C343.991 226.786 356.358 238.243 366.44 252.949C367.376 254.32 368.276 255.743 369.158 257.149L374.091 210.938H419.673L409.466 304.889L419.691 398.892Z" fill="#FAEDDD"/>
</svg>
