<svg width="604" height="560" viewBox="0 0 604 560" fill="none" xmlns="http://www.w3.org/2000/svg">
<path d="M96.3321 0L81.7331 79.172L15.153 440.469L13.4018 449.979L7.09402 484.257L0 522.728L570.184 451.853L603.902 268.903L96.3321 0ZM408.04 408.083H389.349C369.103 408.083 357.417 396.806 356.648 376.981C340.298 398.751 316.157 411.955 288.889 411.955C236.336 411.955 195.845 369.987 195.845 310.889C195.845 251.791 236.729 209.787 290.068 209.787C320.035 209.787 346.124 225.739 362.474 250.613L367.942 213.677H402.965L388.956 310.871V362.564C388.956 369.184 392.851 373.074 399.087 373.074H408.04V408.047V408.083Z" fill="#FAEDDD"/>
<path d="M293.962 244.007C259.332 244.007 234.012 272.003 234.012 310.885C234.012 349.766 259.314 377.727 293.962 377.727C328.61 377.727 354.699 349.73 354.699 310.885C354.699 272.039 329.004 244.007 293.962 244.007Z" fill="#FAEDDD"/>
<path d="M384.303 516.429V496.764H395.115V492.319H398.462V499.929H388.199V516.429H384.303Z" fill="#FAEDDD"/>
<path d="M404.152 524.862V501.502C404.152 500.752 404.115 499.984 404.06 499.179C403.987 498.393 403.932 497.588 403.841 496.783H407.664L408.048 501.228H407.628C408.048 499.746 408.89 498.576 410.152 497.716C411.415 496.856 412.915 496.436 414.653 496.436C416.391 496.436 417.909 496.838 419.226 497.661C420.525 498.484 421.531 499.637 422.245 501.155C422.958 502.673 423.324 504.484 423.324 506.624C423.324 508.764 422.958 510.557 422.245 512.094C421.531 513.63 420.525 514.801 419.226 515.606C417.927 516.411 416.409 516.813 414.653 516.813C412.896 516.813 411.451 516.392 410.189 515.551C408.927 514.709 408.085 513.557 407.664 512.094H408.103V524.898H404.17L404.152 524.862ZM413.683 513.703C415.403 513.703 416.775 513.1 417.799 511.911C418.824 510.722 419.336 508.947 419.336 506.606C419.336 504.265 418.824 502.509 417.799 501.32C416.775 500.131 415.403 499.545 413.683 499.545C411.963 499.545 410.591 500.131 409.567 501.32C408.542 502.509 408.03 504.265 408.03 506.606C408.03 508.947 408.542 510.722 409.567 511.911C410.591 513.1 411.963 513.703 413.683 513.703Z" fill="#FAEDDD"/>
<path d="M437.868 516.794C436.13 516.794 434.611 516.391 433.294 515.586C431.995 514.781 430.989 513.611 430.276 512.074C429.562 510.538 429.196 508.727 429.196 506.605C429.196 504.483 429.562 502.654 430.276 501.135C430.989 499.635 431.995 498.465 433.294 497.642C434.593 496.818 436.111 496.416 437.868 496.416C439.624 496.416 441.087 496.837 442.35 497.696C443.63 498.556 444.472 499.727 444.893 501.209H444.454L444.838 496.764H448.661C448.588 497.568 448.515 498.373 448.442 499.16C448.369 499.946 448.35 500.733 448.35 501.483V516.428H444.417V512.056H444.838C444.417 513.519 443.576 514.672 442.277 515.513C440.996 516.355 439.514 516.775 437.849 516.775L437.868 516.794ZM438.837 513.702C440.52 513.702 441.892 513.099 442.917 511.91C443.941 510.721 444.454 508.946 444.454 506.605C444.454 504.263 443.941 502.507 442.917 501.318C441.892 500.129 440.539 499.544 438.837 499.544C437.136 499.544 435.746 500.129 434.721 501.318C433.697 502.507 433.184 504.263 433.184 506.605C433.184 508.946 433.697 510.721 434.703 511.91C435.709 513.099 437.099 513.702 438.837 513.702Z" fill="#FAEDDD"/>
<path d="M456.363 516.427V496.763H460.26V504.756H470.212V496.763H474.109V516.427H470.212V507.848H460.26V516.427H456.363Z" fill="#FAEDDD"/>
<path d="M486.202 516.427V499.927H479.25V496.763H497.087V499.927H490.098V516.427H486.202Z" fill="#FAEDDD"/>
<path d="M510.661 516.795C508.703 516.795 507.02 516.392 505.593 515.569C504.166 514.746 503.051 513.575 502.282 512.057C501.496 510.539 501.111 508.728 501.111 506.624C501.111 504.521 501.496 502.71 502.282 501.173C503.069 499.655 504.166 498.484 505.593 497.661C507.02 496.838 508.722 496.436 510.661 496.436C512.6 496.436 514.301 496.838 515.747 497.661C517.192 498.484 518.308 499.655 519.095 501.173C519.881 502.691 520.284 504.502 520.284 506.624C520.284 508.746 519.881 510.539 519.095 512.057C518.308 513.575 517.192 514.746 515.747 515.569C514.301 516.392 512.6 516.795 510.661 516.795ZM510.661 513.703C512.38 513.703 513.734 513.1 514.759 511.911C515.783 510.722 516.277 508.947 516.277 506.606C516.277 504.265 515.765 502.509 514.759 501.32C513.753 500.131 512.38 499.545 510.661 499.545C508.941 499.545 507.624 500.131 506.6 501.32C505.593 502.509 505.081 504.265 505.081 506.606C505.081 508.947 505.575 510.722 506.581 511.911C507.587 513.1 508.941 513.703 510.661 513.703Z" fill="#FAEDDD"/>
<path d="M527.124 516.427V496.763H537.04C539.399 496.763 541.156 497.22 542.29 498.116C543.424 499.013 543.991 500.275 543.991 501.921C543.991 503.202 543.571 504.244 542.729 505.086C541.887 505.927 540.772 506.421 539.399 506.604V506.092C541.046 506.165 542.326 506.659 543.259 507.537C544.192 508.415 544.668 509.567 544.668 510.976C544.668 512.659 544.046 513.994 542.784 514.982C541.522 515.97 539.729 516.445 537.424 516.445H527.161L527.124 516.427ZM530.838 505.159H536.655C537.826 505.159 538.741 504.903 539.381 504.372C540.021 503.842 540.351 503.147 540.351 502.232C540.351 501.317 540.021 500.567 539.381 500.074C538.741 499.58 537.826 499.305 536.655 499.305H530.838V505.159ZM530.838 513.903H537.076C538.357 513.903 539.326 513.628 540.003 513.098C540.68 512.567 541.009 511.799 541.009 510.775C541.009 509.75 540.68 509 540.003 508.47C539.326 507.939 538.357 507.683 537.076 507.683H530.838V513.884V513.903Z" fill="#FAEDDD"/>
<path d="M558.938 516.794C557.2 516.794 555.682 516.391 554.364 515.586C553.066 514.781 552.059 513.611 551.346 512.074C550.633 510.538 550.267 508.727 550.267 506.605C550.267 504.483 550.633 502.654 551.346 501.135C552.059 499.635 553.066 498.465 554.364 497.642C555.663 496.818 557.182 496.416 558.938 496.416C560.694 496.416 562.158 496.837 563.42 497.696C564.701 498.556 565.542 499.727 565.963 501.209H565.524L565.908 496.764H569.732C569.658 497.568 569.585 498.373 569.512 499.16C569.439 499.946 569.421 500.733 569.421 501.483V516.428H565.487V512.056H565.908C565.487 513.519 564.646 514.672 563.347 515.513C562.066 516.355 560.584 516.775 558.92 516.775L558.938 516.794ZM559.908 513.702C561.591 513.702 562.963 513.099 563.987 511.91C565.012 510.721 565.524 508.946 565.524 506.605C565.524 504.263 565.012 502.507 563.987 501.318C562.963 500.129 561.609 499.544 559.908 499.544C558.206 499.544 556.816 500.129 555.791 501.318C554.767 502.507 554.255 504.263 554.255 506.605C554.255 508.946 554.767 510.721 555.773 511.91C556.779 513.099 558.17 513.702 559.908 513.702Z" fill="#FAEDDD"/>
<path d="M373.802 551.549V531.885H391.437V551.549H387.541V534.976H377.698V551.549H373.802Z" fill="#FAEDDD"/>
<path d="M399.487 559.963V536.604C399.487 535.854 399.45 535.086 399.395 534.281C399.322 533.494 399.267 532.69 399.176 531.885H402.999L403.384 536.33H402.963C403.383 534.848 404.225 533.677 405.487 532.818C406.75 531.958 408.25 531.537 409.988 531.537C411.726 531.537 413.244 531.94 414.561 532.763C415.86 533.586 416.866 534.738 417.58 536.257C418.293 537.775 418.659 539.586 418.659 541.726C418.659 543.866 418.293 545.659 417.58 547.195C416.866 548.732 415.86 549.903 414.561 550.708C413.262 551.512 411.744 551.915 409.988 551.915C408.231 551.915 406.786 551.494 405.524 550.653C404.262 549.811 403.42 548.659 402.999 547.195H403.438V560H399.505L399.487 559.963ZM409 548.805C410.719 548.805 412.092 548.201 413.116 547.012C414.141 545.823 414.653 544.049 414.653 541.708C414.653 539.366 414.141 537.61 413.116 536.421C412.092 535.232 410.719 534.647 409 534.647C407.28 534.647 405.908 535.232 404.884 536.421C403.859 537.61 403.347 539.366 403.347 541.708C403.347 544.049 403.859 545.823 404.884 547.012C405.908 548.201 407.28 548.805 409 548.805Z" fill="#FAEDDD"/>
<path d="M434.081 551.896C432.123 551.896 430.44 551.494 429.013 550.671C427.586 549.848 426.47 548.677 425.702 547.159C424.915 545.641 424.531 543.83 424.531 541.726C424.531 539.622 424.915 537.811 425.702 536.275C426.489 534.757 427.586 533.586 429.013 532.763C430.44 531.94 432.142 531.537 434.081 531.537C436.02 531.537 437.721 531.94 439.167 532.763C440.612 533.586 441.728 534.757 442.514 536.275C443.301 537.793 443.703 539.604 443.703 541.726C443.703 543.848 443.301 545.641 442.514 547.159C441.728 548.677 440.612 549.848 439.167 550.671C437.721 551.494 436.02 551.896 434.081 551.896ZM434.081 548.805C435.8 548.805 437.154 548.201 438.179 547.012C439.203 545.823 439.697 544.049 439.697 541.708C439.697 539.366 439.185 537.61 438.179 536.421C437.172 535.232 435.8 534.647 434.081 534.647C432.361 534.647 431.044 535.232 430.019 536.421C429.013 537.61 428.501 539.366 428.501 541.708C428.501 544.049 428.995 545.823 430.001 547.012C431.007 548.201 432.361 548.805 434.081 548.805Z" fill="#FAEDDD"/>
<path d="M450.546 551.549V531.885H464.706V535.049H454.479V551.549H450.546Z" fill="#FAEDDD"/>
<path d="M470.414 559.963V536.604C470.414 535.854 470.377 535.086 470.322 534.281C470.249 533.494 470.194 532.69 470.103 531.885H473.926L474.31 536.33H473.889C474.31 534.848 475.152 533.677 476.414 532.818C477.676 531.958 479.177 531.537 480.914 531.537C482.652 531.537 484.171 531.94 485.488 532.763C486.787 533.586 487.793 534.738 488.506 536.257C489.22 537.775 489.586 539.586 489.586 541.726C489.586 543.866 489.22 545.659 488.506 547.195C487.793 548.732 486.787 549.903 485.488 550.708C484.189 551.512 482.671 551.915 480.914 551.915C479.158 551.915 477.713 551.494 476.451 550.653C475.188 549.811 474.347 548.659 473.926 547.195H474.365V560H470.432L470.414 559.963ZM479.926 548.805C481.646 548.805 483.018 548.201 484.043 547.012C485.067 545.823 485.579 544.049 485.579 541.708C485.579 539.366 485.067 537.61 484.043 536.421C483.018 535.232 481.646 534.647 479.926 534.647C478.207 534.647 476.835 535.232 475.81 536.421C474.786 537.61 474.274 539.366 474.274 541.708C474.274 544.049 474.786 545.823 475.81 547.012C476.835 548.201 478.207 548.805 479.926 548.805Z" fill="#FAEDDD"/>
<path d="M504.111 551.897C502.373 551.897 500.855 551.495 499.537 550.69C498.238 549.885 497.232 548.714 496.519 547.178C495.805 545.641 495.439 543.83 495.439 541.708C495.439 539.586 495.805 537.757 496.519 536.239C497.232 534.739 498.238 533.568 499.537 532.745C500.836 531.922 502.355 531.52 504.111 531.52C505.867 531.52 507.331 531.94 508.593 532.8C509.874 533.66 510.715 534.83 511.136 536.312H510.697L511.081 531.867H514.904C514.831 532.672 514.758 533.477 514.685 534.263C514.612 535.05 514.593 535.836 514.593 536.586V551.531H510.66V547.159H511.081C510.66 548.623 509.819 549.775 508.52 550.617C507.239 551.458 505.757 551.879 504.093 551.879L504.111 551.897ZM505.099 548.806C506.782 548.806 508.154 548.202 509.178 547.013C510.203 545.824 510.715 544.05 510.715 541.708C510.715 539.367 510.203 537.611 509.178 536.422C508.154 535.233 506.8 534.647 505.099 534.647C503.397 534.647 502.007 535.233 500.983 536.422C499.958 537.611 499.446 539.367 499.446 541.708C499.446 544.05 499.958 545.824 500.964 547.013C501.97 548.202 503.361 548.806 505.099 548.806Z" fill="#FAEDDD"/>
<path d="M522.606 551.549V531.885H525.881L532.979 544.452L540.077 531.885H543.352V551.549H539.876V536.293H540.736L533.912 548.384H532.046L525.222 536.293H526.082V551.549H522.606Z" fill="#FAEDDD"/>
<path d="M558.939 551.897C557.201 551.897 555.683 551.495 554.365 550.69C553.067 549.885 552.06 548.714 551.347 547.178C550.634 545.641 550.268 543.83 550.268 541.708C550.268 539.586 550.634 537.757 551.347 536.239C552.06 534.739 553.067 533.568 554.365 532.745C555.664 531.922 557.183 531.52 558.939 531.52C560.695 531.52 562.159 531.94 563.421 532.8C564.702 533.66 565.543 534.83 565.964 536.312H565.525L565.909 531.867H569.733C569.659 532.672 569.586 533.477 569.513 534.263C569.44 535.05 569.422 535.836 569.422 536.586V551.531H565.488V547.159H565.909C565.488 548.623 564.647 549.775 563.348 550.617C562.067 551.458 560.585 551.879 558.921 551.879L558.939 551.897ZM559.909 548.806C561.592 548.806 562.964 548.202 563.988 547.013C565.013 545.824 565.525 544.05 565.525 541.708C565.525 539.367 565.013 537.611 563.988 536.422C562.964 535.233 561.61 534.647 559.909 534.647C558.207 534.647 556.817 535.233 555.792 536.422C554.768 537.611 554.256 539.367 554.256 541.708C554.256 544.05 554.768 545.824 555.774 547.013C556.78 548.202 558.171 548.806 559.909 548.806Z" fill="#FAEDDD"/>
</svg>
