<svg width="67" height="58" viewBox="0 0 67 58" fill="none" xmlns="http://www.w3.org/2000/svg">
<path d="M10.6876 0L9.06788 8.78464L1.68115 48.8728L1.48686 49.9281L0.787046 53.7314L0 58L63.2591 50.136L67 29.8365L10.6876 0ZM45.27 45.2794H43.1963C40.9502 45.2794 39.6536 44.0281 39.5684 41.8285C37.7544 44.2439 35.0761 45.709 32.0508 45.709C26.2203 45.709 21.728 41.0524 21.728 34.4951C21.728 27.9378 26.2639 23.2772 32.1817 23.2772C35.5063 23.2772 38.4007 25.0472 40.2147 27.8071L40.8213 23.7088H44.707L43.1527 34.4931V40.2288C43.1527 40.9633 43.5849 41.3949 44.2768 41.3949H45.27V45.2754V45.2794Z" fill="#FAEDDD"/>
<path d="M32.6141 27.0742C28.7721 27.0742 25.9629 30.1806 25.9629 34.4947C25.9629 38.8089 28.7701 41.9113 32.6141 41.9113C36.4582 41.9113 39.3526 38.8049 39.3526 34.4947C39.3526 30.1846 36.5018 27.0742 32.6141 27.0742Z" fill="#FAEDDD"/>
</svg>
